<svg version="1.1" id="Layer_1" xmlns="http://www.w3.org/2000/svg" xmlns:xlink="http://www.w3.org/1999/xlink" x="0px" y="0px"
	 width="100%" viewBox="0 0 225 225" enable-background="new 0 0 225 225" xml:space="preserve">
<path fill="#FDFEFE" opacity="1.000000" stroke="none" 
	d="
M226.000000,121.000000 
	C226.000000,155.964935 226.000000,190.929855 226.000000,225.947388 
	C151.110260,225.947388 76.220459,225.947388 1.000000,225.947388 
	C1.000000,190.646454 1.000000,155.291885 1.296778,119.622742 
	C4.848909,122.081696 8.499564,124.511391 11.275064,127.702309 
	C16.603493,133.828262 17.422504,134.585144 24.926929,135.372772 
	C24.268366,133.868607 23.568760,132.270706 23.087303,130.413513 
	C26.128475,129.090622 28.951500,128.027008 32.175949,126.919693 
	C33.060337,126.671669 33.543301,126.467346 34.430607,126.411987 
	C35.577847,127.146919 37.038792,127.875198 36.955132,128.297363 
	C35.834641,133.951370 38.353260,140.724350 31.877205,144.591614 
	C31.072605,145.178513 30.474573,146.017166 29.476086,146.803680 
	C25.805262,147.368240 24.774847,149.318420 24.636389,152.631439 
	C24.419424,157.822876 25.840618,161.887726 29.758127,165.477463 
	C33.424503,168.837082 38.391987,171.742111 36.777664,178.291946 
	C36.510479,179.376007 37.660778,181.182953 38.651878,182.144974 
	C47.164551,190.407883 56.476215,197.560410 67.749786,202.414658 
	C68.972061,203.066879 69.987648,203.458694 71.312317,204.050140 
	C78.066422,206.205826 84.511436,208.161865 91.166534,210.301758 
	C91.920792,210.539490 92.464973,210.593399 93.391953,210.805573 
	C98.213394,211.485748 101.905548,212.613052 105.046516,216.634644 
	C108.995354,221.690628 117.392807,221.979996 121.420860,217.074310 
	C124.961182,212.762604 129.136475,211.512802 134.274414,210.797729 
	C135.061676,210.628952 135.568222,210.407043 136.470551,210.206146 
	C153.823486,206.639679 168.841187,199.069870 182.166824,188.072830 
	C186.625824,184.393005 191.772552,181.042328 190.257996,173.904373 
	C190.162567,173.454605 190.226120,172.841095 190.469070,172.469299 
	C193.519165,167.801224 196.627121,163.170990 199.696350,158.515305 
	C201.314270,156.061127 199.208328,148.024078 196.684525,146.910431 
	C191.371292,144.565979 187.441254,138.246262 188.277771,132.827301 
	C188.443420,131.754135 189.918091,130.159744 190.906403,130.067886 
	C194.338364,129.748962 197.821930,129.985626 201.459625,130.166168 
	C201.761810,130.760635 201.890244,131.199875 201.698135,131.777542 
	C200.640427,132.820740 199.903259,133.725510 198.883957,134.976547 
	C201.126755,135.691071 202.965698,138.515182 204.163757,134.609131 
	C207.251892,134.170959 210.502533,134.154007 212.635010,132.601334 
	C217.386627,129.141617 221.579453,124.914429 226.000000,121.000000 
z"/>
<path fill="#FDFEFE" opacity="1.000000" stroke="none" 
	d="
M1.000001,107.000000 
	C1.000000,71.701820 1.000000,36.403641 1.000000,1.052731 
	C75.890198,1.052731 150.780441,1.052731 226.000000,1.052731 
	C226.000000,37.020226 226.000000,73.041451 225.702179,109.354630 
	C222.988449,105.401047 220.504272,101.192589 218.173325,96.900909 
	C215.003281,91.064308 208.629257,86.641556 210.082138,78.709854 
	C210.163696,78.264496 209.377640,77.665596 209.005753,77.130966 
	C204.973602,71.334366 200.298828,66.167351 200.557907,58.059780 
	C200.775299,51.256607 194.225739,48.633728 189.218948,45.480423 
	C189.621628,43.936123 189.987274,42.533810 190.522934,40.894974 
	C190.523895,39.746807 190.354874,38.835152 190.185562,37.563301 
	C183.530441,27.953928 174.205292,22.092152 164.162933,16.595850 
	C162.295364,15.578073 160.646988,14.826571 158.710602,13.863015 
	C155.279663,12.440366 152.136703,11.229770 148.774124,9.854115 
	C148.034042,9.553687 147.513580,9.418319 146.648163,9.106632 
	C143.549728,8.247585 140.796295,7.564858 137.790894,6.679815 
	C136.697922,6.357101 135.856888,6.236704 134.769653,6.024236 
	C134.349533,5.953375 134.175583,5.974587 133.732056,5.833478 
	C132.639130,5.555102 131.815811,5.439047 130.616409,5.177456 
	C129.171158,4.991373 128.101990,4.950826 126.756905,4.756139 
	C125.650497,4.557532 124.820007,4.513065 123.542023,4.322205 
	C114.065933,4.568935 105.037346,4.962059 95.695877,5.311459 
	C94.588058,5.510435 93.793121,5.753135 92.613083,5.965380 
	C90.487053,6.365928 88.746117,6.796931 86.724785,7.191401 
	C85.947273,7.397534 85.450172,7.640200 84.565308,7.871245 
	C78.118782,10.260089 72.060013,12.660554 65.678009,15.089734 
	C64.463676,15.705315 63.572594,16.292179 62.345833,16.931377 
	C54.755463,22.222366 47.421978,27.357653 40.307533,32.780327 
	C38.743473,33.972466 37.957630,36.185619 36.611671,38.175022 
	C36.579220,39.625439 36.748512,40.829422 36.903328,42.392616 
	C36.530033,43.421684 36.337654,44.445122 35.785797,44.704891 
	C31.751680,46.603840 29.860580,49.964062 28.319471,53.984894 
	C26.219303,59.464355 23.476410,64.697472 20.732433,70.267822 
	C20.293888,71.170746 20.132010,71.842056 19.989803,72.508797 
	C20.009476,72.504227 19.992601,72.467529 19.638260,72.701340 
	C17.843933,77.938530 16.403946,82.941910 14.975388,87.966766 
	C14.986816,87.988251 14.942376,87.968391 14.619323,87.761826 
	C11.686270,91.367149 9.076269,95.179047 6.373631,99.047012 
	C6.280992,99.103073 6.034284,99.458084 5.742885,99.685310 
	C4.761078,101.213547 4.070670,102.514557 3.166090,104.018280 
	C2.301278,105.147324 1.650640,106.073662 1.000001,107.000000 
z"/>
<path fill="#115895" opacity="1.000000" stroke="none" 
	d="
M36.813416,37.928593 
	C37.957630,36.185619 38.743473,33.972466 40.307533,32.780327 
	C47.421978,27.357653 54.755463,22.222366 62.719505,16.961727 
	C64.286308,16.313501 65.143784,15.687258 66.001251,15.061016 
	C72.060013,12.660554 78.118782,10.260089 84.713562,8.109049 
	C85.834778,7.981627 86.419983,7.604780 87.005188,7.227934 
	C88.746117,6.796931 90.487053,6.365928 92.794731,6.209770 
	C94.243904,6.108138 95.126328,5.731661 96.008751,5.355184 
	C105.037346,4.962059 114.065933,4.568935 123.625839,4.612472 
	C125.115707,5.002847 126.074265,4.956563 127.032814,4.910278 
	C128.101990,4.950826 129.171158,4.991373 130.683472,5.476420 
	C132.084930,5.945879 133.043289,5.970839 134.001633,5.995798 
	C134.175583,5.974587 134.349533,5.953375 134.913849,6.288821 
	C136.217087,6.724362 137.129974,6.803246 138.042847,6.882131 
	C140.796295,7.564858 143.549728,8.247585 146.692566,9.376050 
	C147.719223,9.887582 148.356491,9.953377 148.993759,10.019173 
	C152.136703,11.229770 155.279663,12.440366 158.778534,14.219355 
	C160.883682,15.479207 162.632889,16.170668 164.382111,16.862125 
	C174.205292,22.092152 183.530441,27.953928 189.899521,37.760483 
	C189.860153,39.255741 190.106537,40.193619 190.352936,41.131493 
	C189.987274,42.533810 189.621628,43.936123 189.218948,45.480423 
	C194.225739,48.633728 200.775299,51.256607 200.557907,58.059780 
	C200.298828,66.167351 204.973602,71.334366 209.005753,77.130966 
	C209.377640,77.665596 210.163696,78.264496 210.082138,78.709854 
	C208.629257,86.641556 215.003281,91.064308 218.173325,96.900909 
	C220.504272,101.192589 222.988449,105.401047 225.702179,109.823288 
	C226.000000,111.388893 226.000000,112.777779 225.789185,114.583107 
	C225.578354,114.999542 225.156708,114.998215 225.012970,114.664337 
	C220.316666,106.911285 215.764084,99.492119 210.923386,92.194626 
	C210.424133,92.884079 210.212997,93.451851 209.643646,93.991547 
	C207.227020,92.749702 204.381744,92.015053 203.285858,90.215240 
	C201.419601,87.150169 199.579498,87.886040 197.206818,88.465012 
	C197.105087,87.704842 197.069778,87.400078 197.225433,86.765503 
	C197.239883,85.971817 197.063339,85.507942 197.260986,85.044525 
	C198.525696,84.229515 199.416199,83.414047 200.306702,82.598579 
	C199.944931,82.271103 199.583145,81.943634 199.221375,81.616165 
	C198.468842,82.762794 197.716309,83.909424 196.769577,85.193512 
	C196.575394,85.330986 196.114670,85.450012 196.052231,85.182449 
	C195.777374,84.622597 195.564957,84.330299 195.323059,83.722244 
	C194.562592,83.018913 193.831619,82.631348 193.057312,81.884857 
	C192.984009,81.286812 192.954041,81.047691 193.203094,80.542206 
	C197.300873,79.423820 201.082336,76.779770 205.018829,80.318222 
	C205.477905,80.906136 205.904785,81.212227 206.331650,81.518311 
	C206.256668,81.025505 206.181702,80.532700 206.129852,79.716019 
	C203.482529,71.187561 197.771561,65.557381 190.666656,60.592819 
	C190.579269,62.006916 190.523178,62.914497 190.449509,64.106834 
	C188.736130,63.170715 187.464828,62.476131 186.033203,61.552078 
	C185.428619,61.320705 184.984360,61.318798 184.540100,61.316891 
	C184.880157,61.712757 185.220215,62.108627 185.643463,62.843910 
	C184.253464,63.590340 182.780273,63.997353 181.328018,64.398582 
	C181.498718,64.968384 181.979019,66.048744 181.828491,66.145241 
	C177.405960,68.980797 176.827728,73.294792 177.068848,77.983253 
	C177.099548,78.580505 176.723206,79.187531 176.640732,79.804115 
	C176.474899,81.043922 175.846558,83.082367 176.340820,83.417625 
	C181.620712,86.999031 184.399780,94.016289 192.216873,94.742226 
	C190.732880,95.927376 189.546463,96.874886 187.741806,98.316132 
	C190.645370,98.316132 192.663818,98.316132 195.598511,98.316132 
	C193.575912,99.951126 192.248566,101.024101 190.729492,102.252060 
	C192.277420,102.648354 193.491150,102.959084 194.704880,103.269806 
	C194.675873,103.655823 194.646881,104.041840 194.617874,104.427856 
	C189.072266,104.771828 183.526642,105.115807 177.639069,105.480995 
	C178.161682,106.050987 178.252655,106.247307 178.381424,106.276398 
	C181.282867,106.932053 184.188431,107.569351 187.299744,108.255661 
	C185.948837,109.516129 184.684113,110.696198 183.453094,111.844810 
	C182.386871,111.410820 181.481064,110.975578 180.532440,110.675972 
	C179.697006,110.412125 178.813690,110.299881 177.514160,110.029778 
	C182.102982,116.621490 182.102982,116.621490 176.458679,120.574387 
	C178.892197,121.123482 181.258270,121.657356 183.624329,122.191231 
	C183.447540,122.678368 183.270752,123.165497 183.093948,123.652634 
	C183.854553,123.939873 184.608673,124.456223 185.376785,124.477951 
	C191.276505,124.644844 197.527451,123.706863 201.285873,130.010956 
	C197.821930,129.985626 194.338364,129.748962 190.906403,130.067886 
	C189.918091,130.159744 188.443420,131.754135 188.277771,132.827301 
	C187.441254,138.246262 191.371292,144.565979 196.684525,146.910431 
	C199.208328,148.024078 201.314270,156.061127 199.696350,158.515305 
	C196.627121,163.170990 193.519165,167.801224 190.469070,172.469299 
	C190.226120,172.841095 190.162567,173.454605 190.257996,173.904373 
	C191.772552,181.042328 186.625824,184.393005 182.166824,188.072830 
	C168.841187,199.069870 153.823486,206.639679 136.328308,209.960587 
	C135.191452,210.044205 134.592575,210.394394 133.993698,210.744583 
	C129.136475,211.512802 124.961182,212.762604 121.420860,217.074310 
	C117.392807,221.979996 108.995354,221.690628 105.046516,216.634644 
	C101.905548,212.613052 98.213394,211.485748 93.337395,210.534760 
	C92.252174,210.109741 91.604317,210.113831 90.956459,210.117920 
	C84.511436,208.161865 78.066422,206.205826 71.227577,203.691269 
	C69.736870,202.806595 68.639984,202.480423 67.543098,202.154236 
	C56.476215,197.560410 47.164551,190.407883 38.651878,182.144974 
	C37.660778,181.182953 36.510479,179.376007 36.777664,178.291946 
	C38.391987,171.742111 33.424503,168.837082 29.758127,165.477463 
	C25.840618,161.887726 24.419424,157.822876 24.636389,152.631439 
	C24.774847,149.318420 25.805262,147.368240 29.511669,147.194275 
	C29.963718,148.943573 29.979727,150.250168 29.625149,151.626633 
	C28.284693,154.172104 28.284693,154.172104 32.701115,156.944473 
	C37.461952,155.142212 41.912495,153.981262 45.821926,151.834778 
	C49.996250,149.542877 53.659687,146.320480 58.161770,143.058167 
	C57.445618,141.211441 56.563995,138.938019 55.682373,136.664597 
	C55.264240,136.838516 54.846104,137.012421 54.427971,137.186340 
	C54.571213,144.848175 42.593132,149.157745 33.997387,150.508286 
	C33.357292,148.378128 32.720531,146.610748 32.083771,144.843384 
	C38.353260,140.724350 35.834641,133.951370 36.955132,128.297363 
	C37.038792,127.875198 35.577847,127.146919 34.427246,126.222412 
	C34.009521,125.631134 34.004185,125.378288 34.342827,124.986267 
	C36.111160,124.530777 37.540207,124.214355 39.412811,123.946838 
	C43.432053,123.995750 47.007740,123.995750 50.583427,123.995750 
	C50.550003,123.602158 50.516579,123.208565 50.483154,122.814972 
	C48.011391,122.126236 45.539627,121.437492 43.314106,120.492676 
	C45.703232,117.934998 46.025280,115.932259 43.678474,114.541222 
	C43.049580,116.887581 42.522896,118.852592 41.719772,121.015533 
	C40.609154,121.553482 39.774982,121.893524 38.509972,122.188843 
	C37.681114,119.510544 37.283104,116.876984 37.019363,113.972382 
	C37.465172,113.453552 37.776714,113.205750 38.318977,113.090912 
	C39.206272,113.156898 39.862843,113.089920 40.819565,113.010056 
	C41.747932,112.388733 42.376141,111.780289 43.376617,111.116158 
	C45.219913,111.669441 46.690941,112.278412 48.638222,113.084534 
	C48.902618,111.274864 49.120712,109.782089 49.408020,107.815590 
	C46.467098,108.171799 44.089855,108.459732 40.665535,108.874496 
	C42.032768,107.598885 42.685379,106.990005 43.578823,106.156433 
	C42.179535,105.649582 40.884457,105.180473 39.493191,104.676529 
	C40.339638,103.707718 40.998127,102.954033 41.248928,102.666977 
	C37.675011,100.012161 34.416019,97.591278 31.157030,95.170395 
	C31.404303,94.749985 31.651575,94.329575 31.898848,93.909164 
	C33.758049,94.166809 35.617252,94.424454 37.618950,94.701843 
	C37.385963,93.063942 37.174782,91.579323 36.909107,89.711586 
	C39.184956,90.085518 40.965233,90.378021 43.140648,90.735451 
	C42.301216,89.263809 41.183693,88.225510 41.279537,87.314919 
	C41.718731,83.142235 38.925369,83.889397 36.917282,84.600479 
	C31.847237,86.395844 26.937086,88.638222 21.918976,90.588554 
	C20.900419,90.984428 19.689060,90.884239 18.575397,91.011734 
	C19.140896,89.182312 19.637949,87.574318 20.461052,85.945869 
	C21.170280,84.577301 21.553463,83.229195 21.953930,81.497513 
	C23.575480,79.749367 25.185955,77.248062 26.782709,77.256798 
	C30.108412,77.274971 33.407787,78.715416 36.754074,79.393227 
	C39.645809,79.978973 42.587471,80.318245 46.189808,80.871284 
	C45.523136,78.322128 45.214577,77.142288 44.906017,75.962448 
	C45.344139,76.137985 45.782261,76.313515 46.220387,76.489052 
	C47.626045,74.389824 50.105431,72.278099 50.081196,70.195518 
	C50.063366,68.662872 46.771374,67.168312 44.884296,65.612183 
	C45.625690,64.826805 46.728680,63.658382 47.831673,62.489956 
	C47.590893,62.184170 47.350113,61.878384 47.109329,61.572601 
	C44.973282,62.633080 42.837234,63.693558 40.400185,64.903473 
	C40.167408,63.478985 39.982395,62.346764 39.765907,61.021938 
	C38.533119,61.652584 37.697208,62.080200 36.836056,62.520733 
	C35.164471,60.270496 33.593800,58.156105 32.312149,55.851768 
	C34.557499,53.802792 36.568691,51.997066 38.447773,50.062981 
	C39.436378,49.045437 40.194019,47.803505 41.055954,46.662891 
	C40.676369,46.414001 40.296787,46.165115 39.917206,45.916225 
	C36.237160,48.204887 31.735392,49.678616 30.985691,55.373848 
	C27.179712,60.267597 29.225254,67.694397 22.787853,70.994789 
	C21.990833,70.663895 21.499964,70.350052 21.009096,70.036209 
	C23.476410,64.697472 26.219303,59.464355 28.319471,53.984894 
	C29.860580,49.964062 31.751680,46.603840 35.785797,44.704891 
	C36.337654,44.445122 36.530033,43.421684 37.179993,42.176025 
	C37.251892,40.376354 37.032654,39.152473 36.813416,37.928593 
M54.006577,131.407715 
	C53.804321,130.898834 53.602066,130.389969 53.399815,129.881088 
	C53.199368,130.113770 52.784996,130.481369 52.832939,130.557419 
	C53.161552,131.078491 53.587067,131.538483 53.925682,132.682831 
	C53.793308,133.602402 53.660934,134.521957 53.528564,135.441528 
	C53.975826,135.414154 54.423088,135.386795 54.870350,135.359421 
	C54.586536,134.233368 54.302719,133.107330 54.006577,131.407715 
M182.095551,151.234451 
	C182.826584,152.218719 183.385956,153.769897 184.328583,154.055328 
	C185.767151,154.490921 187.470657,154.051651 189.183655,154.788132 
	C188.780579,157.812607 186.503876,160.998901 190.242264,164.399902 
	C191.606232,162.572205 192.734772,161.052139 193.871750,159.538437 
	C195.335938,157.589111 196.806900,155.644867 198.274948,153.698425 
	C195.534897,153.068176 192.794861,152.437912 189.560226,151.344299 
	C187.809570,150.840485 186.058914,150.336670 183.794220,149.329391 
	C180.492844,148.234207 177.191483,147.139038 173.776627,145.285355 
	C172.917694,142.565094 172.058777,139.844833 170.989502,136.458374 
	C169.588593,139.003830 168.381073,141.197922 167.135010,143.462051 
	C169.729324,144.412689 171.846817,145.188599 174.200562,146.712936 
	C175.967056,150.185486 178.392700,152.130768 182.095551,151.234451 
M44.601486,136.738220 
	C44.714085,136.418457 44.606052,136.183090 44.100361,135.293869 
	C44.274540,134.491470 44.501297,133.696228 44.611382,132.885132 
	C44.808731,131.431076 44.935909,129.967514 45.092415,128.507919 
	C43.721100,129.639496 41.488232,130.555557 41.141102,131.943314 
	C40.126949,135.997696 39.865223,140.240280 39.256527,144.799072 
	C43.334831,143.410339 44.158588,140.375015 44.601486,136.738220 
M43.579559,48.607983 
	C43.519283,49.124912 43.459007,49.641838 43.177410,50.524902 
	C43.373699,51.002884 43.569984,51.480869 44.070320,52.611374 
	C46.550331,58.723045 50.928452,61.771839 57.673065,61.293915 
	C58.867390,61.209286 60.503155,61.510567 61.271492,62.288792 
	C64.294060,65.350243 66.513657,64.312286 69.306541,61.767658 
	C94.924309,38.427113 132.065292,38.440384 157.746887,61.801891 
	C160.557632,64.358704 162.711899,65.282990 165.788757,62.287899 
	C166.734726,61.367058 168.811188,61.367844 170.372314,61.359051 
	C178.241486,61.314713 183.404221,56.021576 183.348511,48.080471 
	C183.337723,46.543163 183.421661,44.497108 184.346863,43.552559 
	C187.684814,40.144749 186.175812,37.873497 183.333359,35.251419 
	C143.988266,-1.043322 83.004921,-1.082794 43.781643,35.150150 
	C40.741528,37.958488 39.263931,40.450653 42.955944,43.789635 
	C43.442493,44.229660 43.193634,45.482849 43.160316,46.860096 
	C43.240330,47.187641 43.320343,47.515190 43.579559,48.607983 
M54.737167,155.422577 
	C46.945316,157.344177 44.165932,160.575485 43.398129,168.475296 
	C43.242306,170.078537 43.413532,172.193314 42.484539,173.156830 
	C38.885365,176.889709 41.055313,179.258209 43.843739,181.871765 
	C59.838791,196.863693 78.854881,205.280472 100.503555,207.891235 
	C103.143585,208.209610 104.783440,208.679947 106.177299,211.468369 
	C109.403709,217.922882 117.647484,217.900970 120.851479,211.426468 
	C122.247047,208.606384 123.929222,208.218246 126.546478,207.895355 
	C148.538452,205.182266 167.820312,196.602692 183.907272,181.143585 
	C186.436478,178.713089 187.563477,176.608093 184.789642,173.542908 
	C183.855972,172.511185 183.450974,170.617035 183.502304,169.141327 
	C183.797974,160.640610 178.209488,155.186752 169.472504,155.533569 
	C168.272659,155.581192 166.586975,155.382401 165.911423,154.610504 
	C162.645996,150.879395 160.253891,152.262619 157.242065,155.141266 
	C146.081009,165.808868 132.605331,171.358093 117.221771,172.159286 
	C98.445610,173.137161 82.145477,167.239700 68.608116,154.104034 
	C66.430428,151.990952 64.769470,151.749283 62.137268,153.575836 
	C60.362900,154.807129 57.732304,154.804520 54.737167,155.422577 
M80.110428,157.437729 
	C92.426048,165.425400 105.789337,168.908813 120.490036,167.192566 
	C145.813766,164.236069 166.776016,145.042923 171.759018,120.057755 
	C176.833160,94.615631 164.628326,68.581726 141.844116,56.246841 
	C118.906670,43.828995 90.554420,47.744408 72.075562,65.886086 
	C45.845676,91.637352 48.447697,134.842926 80.110428,157.437729 
M179.162796,129.745438 
	C179.170044,135.257614 181.212540,140.127930 184.063293,144.686340 
	C184.620132,145.576752 185.821091,146.064362 186.791763,146.787537 
	C186.384705,142.741272 185.903976,139.197037 185.703644,135.637039 
	C185.487869,131.802155 184.106598,129.295334 179.162796,129.745438 
M206.244781,83.845749 
	C206.388931,84.407394 206.533096,84.969040 206.677261,85.530678 
	C207.047012,85.333397 207.416748,85.136116 207.786499,84.938835 
	C207.423553,84.426132 207.060608,83.913429 206.244781,83.845749 
M208.477173,87.594833 
	C208.180389,87.870796 207.883621,88.146751 207.586853,88.422714 
	C207.693756,88.526436 207.882370,88.729988 207.895523,88.719215 
	C208.193100,88.475639 208.471420,88.208580 208.477173,87.594833 
M209.963974,90.844734 
	C209.808929,90.580666 209.707138,90.189598 209.481110,90.094810 
	C209.315826,90.025513 208.987152,90.345871 208.731308,90.492546 
	C208.987381,90.638206 209.243454,90.783867 209.963974,90.844734 
M40.596500,59.520988 
	C40.596500,59.520988 40.477398,59.594978 40.596500,59.520988 
z"/>
<path fill="#165B97" opacity="1.000000" stroke="none" 
	d="
M22.869156,130.672791 
	C23.568760,132.270706 24.268366,133.868607 24.926929,135.372772 
	C17.422504,134.585144 16.603493,133.828262 11.275064,127.702309 
	C8.499564,124.511391 4.848909,122.081696 1.296778,119.154083 
	C1.000000,116.958336 1.000000,114.916664 1.241641,112.437393 
	C1.483282,111.999786 1.966565,111.999413 1.990041,112.402954 
	C2.241998,113.969528 2.470478,115.132568 2.592266,115.752510 
	C8.332410,113.989822 13.559252,112.384758 18.920414,110.915184 
	C19.054733,111.050667 19.325495,111.319511 19.358881,111.718689 
	C18.675999,113.734329 18.293739,115.652168 17.168310,116.899422 
	C15.292949,118.977768 12.941552,120.626579 10.514441,122.691147 
	C14.823143,126.312088 15.780024,133.176498 22.869156,130.672791 
z"/>
<path fill="#185C96" opacity="1.000000" stroke="none" 
	d="
M225.156708,114.998215 
	C225.156708,114.998215 225.578354,114.999542 225.789185,114.999771 
	C226.000000,116.714355 226.000000,118.428719 226.000000,120.571533 
	C221.579453,124.914429 217.386627,129.141617 212.635010,132.601334 
	C210.502533,134.154007 207.251892,134.170959 203.960907,134.416199 
	C202.963120,133.436096 202.513077,132.924606 202.436798,132.365829 
	C203.779633,132.198608 204.746292,132.003662 205.718231,131.972473 
	C208.931992,131.869354 215.767029,127.615334 216.153687,124.958710 
	C216.815048,120.414597 213.942841,118.005669 210.125687,116.426994 
	C210.044403,116.393379 210.053192,116.141998 209.983948,115.829842 
	C212.733658,112.241768 215.956146,113.062103 219.572708,114.582657 
	C221.203918,115.268494 223.281601,114.892464 225.156708,114.998215 
z"/>
<path fill="#165C98" opacity="1.000000" stroke="none" 
	d="
M1.000001,107.250000 
	C1.650640,106.073662 2.301278,105.147324 3.589545,104.066513 
	C4.793907,103.940956 5.360640,103.969856 5.869877,104.327225 
	C4.757274,106.610878 3.702167,108.566071 2.484706,110.390457 
	C2.322353,110.259659 1.997809,109.997856 1.973631,109.700851 
	C1.632968,108.935898 1.316483,108.467949 0.999999,108.000000 
	C1.000000,108.000000 1.000000,107.500000 1.000001,107.250000 
z"/>
<path fill="#206097" opacity="1.000000" stroke="none" 
	d="
M0.999999,108.333328 
	C1.316483,108.467949 1.632968,108.935898 1.724239,109.700546 
	C1.499026,109.997246 1.000000,110.000000 1.000000,110.000000 
	C1.000000,109.555557 1.000000,109.111107 0.999999,108.333328 
z"/>
<path fill="#165C98" opacity="1.000000" stroke="none" 
	d="
M1.000000,110.333496 
	C1.000000,110.000000 1.499026,109.997246 1.748417,109.997551 
	C1.997809,109.997856 2.322353,110.259659 2.405984,110.651459 
	C2.315264,111.361969 2.140914,111.680695 1.966564,111.999413 
	C1.966565,111.999413 1.483282,111.999786 1.241641,111.999893 
	C1.000000,111.555664 1.000000,111.111328 1.000000,110.333496 
z"/>
<path fill="#EEC636" opacity="1.000000" stroke="none" 
	d="
M225.012970,114.664337 
	C223.281601,114.892464 221.203918,115.268494 219.572708,114.582657 
	C215.956146,113.062103 212.733658,112.241768 209.983948,115.829842 
	C210.053192,116.141998 210.044403,116.393379 210.125687,116.426994 
	C213.942841,118.005669 216.815048,120.414597 216.153687,124.958710 
	C215.767029,127.615334 208.931992,131.869354 205.718231,131.972473 
	C204.746292,132.003662 203.779633,132.198608 202.474182,132.170120 
	C202.137817,132.021698 202.018677,131.639114 202.018677,131.639114 
	C201.890244,131.199875 201.761810,130.760635 201.459625,130.166168 
	C197.527451,123.706863 191.276505,124.644844 185.376785,124.477951 
	C184.608673,124.456223 183.854553,123.939873 183.093948,123.652634 
	C183.270752,123.165497 183.447540,122.678368 183.624329,122.191231 
	C181.258270,121.657356 178.892197,121.123482 176.458679,120.574387 
	C182.102982,116.621490 182.102982,116.621490 177.514160,110.029778 
	C178.813690,110.299881 179.697006,110.412125 180.532440,110.675972 
	C181.481064,110.975578 182.386871,111.410820 183.453094,111.844810 
	C184.684113,110.696198 185.948837,109.516129 187.299744,108.255661 
	C184.188431,107.569351 181.282867,106.932053 178.381424,106.276398 
	C178.252655,106.247307 178.161682,106.050987 177.639069,105.480995 
	C183.526642,105.115807 189.072266,104.771828 194.617874,104.427856 
	C194.646881,104.041840 194.675873,103.655823 194.704880,103.269806 
	C193.491150,102.959084 192.277420,102.648354 190.729492,102.252060 
	C192.248566,101.024101 193.575912,99.951126 195.598511,98.316132 
	C192.663818,98.316132 190.645370,98.316132 187.741806,98.316132 
	C189.546463,96.874886 190.732880,95.927376 192.216873,94.742226 
	C184.399780,94.016289 181.620712,86.999031 176.340820,83.417625 
	C175.846558,83.082367 176.474899,81.043922 176.640732,79.804115 
	C176.723206,79.187531 177.099548,78.580505 177.068848,77.983253 
	C176.827728,73.294792 177.405960,68.980797 181.828491,66.145241 
	C181.979019,66.048744 181.498718,64.968384 181.328018,64.398582 
	C182.780273,63.997353 184.253464,63.590340 185.802628,62.663918 
	C185.878601,62.144512 186.193527,61.781544 186.193527,61.781544 
	C187.464828,62.476131 188.736130,63.170715 190.449509,64.106834 
	C190.523178,62.914497 190.579269,62.006916 190.666656,60.592819 
	C197.771561,65.557381 203.482529,71.187561 205.849655,79.764946 
	C205.359772,80.103966 205.173187,80.070183 204.986618,80.036392 
	C201.082336,76.779770 197.300873,79.423820 192.788177,80.566544 
	C188.374802,81.257507 184.655334,81.657753 181.000275,81.846756 
	C180.830780,81.592087 180.596863,81.548645 180.362961,81.505203 
	C180.586960,81.662766 180.810959,81.820335 181.067734,82.332146 
	C182.806961,83.588501 184.566971,85.307243 186.207184,85.199661 
	C188.615082,85.041725 192.493408,86.978317 193.100632,82.243782 
	C193.831619,82.631348 194.562592,83.018913 195.210632,83.968819 
	C195.456665,84.837440 195.785675,85.143730 196.114670,85.450012 
	C196.114670,85.450012 196.575394,85.330986 196.755951,85.158310 
	C196.936508,84.985626 196.886795,85.044060 196.886795,85.044060 
	C197.063339,85.507942 197.239883,85.971817 196.857407,86.771095 
	C194.898727,87.674805 193.499069,88.243118 192.099426,88.811432 
	C192.231308,89.255890 192.363190,89.700356 192.495071,90.144821 
	C194.087784,89.736687 195.680496,89.328552 197.273209,88.920425 
	C199.579498,87.886040 201.419601,87.150169 203.285858,90.215240 
	C204.381744,92.015053 207.227020,92.749702 209.969757,93.952652 
	C210.839905,93.318871 211.025711,92.695908 211.211502,92.072952 
	C215.764084,99.492119 220.316666,106.911285 225.012970,114.664337 
M202.487823,120.608452 
	C202.624100,120.804993 202.760361,121.001526 202.645493,121.743011 
	C201.571823,126.082672 207.596725,122.478027 207.322937,125.922523 
	C208.866608,125.539558 210.410263,125.156593 211.953918,124.773636 
	C212.294434,124.066414 212.634949,123.359184 212.975464,122.651962 
	C211.281509,121.568054 209.617737,120.432793 207.885254,119.414429 
	C206.082336,118.354668 204.213058,117.407761 202.233200,115.929947 
	C200.970505,114.925400 199.707809,113.920845 198.030884,112.586761 
	C198.460342,114.890617 198.760254,116.499527 199.215240,118.801788 
	C200.462738,119.227684 201.710236,119.653580 202.991089,120.012276 
	C202.991089,120.012276 202.919785,120.035591 202.487823,120.608452 
z"/>
<path fill="#F0C735" opacity="1.000000" stroke="none" 
	d="
M1.990041,112.402954 
	C2.140914,111.680695 2.315264,111.361969 2.568337,110.782257 
	C3.702167,108.566071 4.757274,106.610878 6.157287,103.997444 
	C8.226995,100.156227 8.226995,100.156227 6.034284,99.458084 
	C6.034284,99.458084 6.280992,99.103073 6.512897,99.506042 
	C7.063627,99.932411 7.382453,99.955811 7.999481,100.130630 
	C8.772063,101.026337 9.792915,101.945557 9.620890,102.482880 
	C9.048115,104.271965 8.047160,105.923965 7.103792,107.845528 
	C11.876822,107.511322 14.608482,100.888062 12.937304,94.595032 
	C13.637589,92.126648 14.289982,90.047523 14.942375,87.968391 
	C14.942376,87.968391 14.986816,87.988251 15.164680,88.362915 
	C16.560341,87.778641 17.778137,86.819710 19.280613,85.888100 
	C19.755196,85.932388 19.945099,85.949356 20.135002,85.966324 
	C19.637949,87.574318 19.140896,89.182312 18.575397,91.011734 
	C19.689060,90.884239 20.900419,90.984428 21.918976,90.588554 
	C26.937086,88.638222 31.847237,86.395844 36.917282,84.600479 
	C38.925369,83.889397 41.718731,83.142235 41.279537,87.314919 
	C41.183693,88.225510 42.301216,89.263809 43.140648,90.735451 
	C40.965233,90.378021 39.184956,90.085518 36.909107,89.711586 
	C37.174782,91.579323 37.385963,93.063942 37.618950,94.701843 
	C35.617252,94.424454 33.758049,94.166809 31.898848,93.909164 
	C31.651575,94.329575 31.404303,94.749985 31.157030,95.170395 
	C34.416019,97.591278 37.675011,100.012161 41.248928,102.666977 
	C40.998127,102.954033 40.339638,103.707718 39.493191,104.676529 
	C40.884457,105.180473 42.179535,105.649582 43.578823,106.156433 
	C42.685379,106.990005 42.032768,107.598885 40.665535,108.874496 
	C44.089855,108.459732 46.467098,108.171799 49.408020,107.815590 
	C49.120712,109.782089 48.902618,111.274864 48.638222,113.084534 
	C46.690941,112.278412 45.219913,111.669441 43.026688,111.051346 
	C41.709469,111.702461 41.114441,112.362694 40.519413,113.022934 
	C39.862843,113.089920 39.206272,113.156898 38.189178,112.785866 
	C37.263035,112.422287 36.697414,112.496727 36.131790,112.571175 
	C36.382889,113.128586 36.633991,113.686005 36.885094,114.243416 
	C37.283104,116.876984 37.681114,119.510544 38.519703,122.466225 
	C38.963268,123.158203 38.966259,123.528069 38.969254,123.897934 
	C37.540207,124.214355 36.111160,124.530777 34.015129,124.979218 
	C32.823601,125.728615 32.299061,126.346001 31.774521,126.963394 
	C28.951500,128.027008 26.128475,129.090622 23.087303,130.413513 
	C15.780024,133.176498 14.823143,126.312088 10.514441,122.691147 
	C12.941552,120.626579 15.292949,118.977768 17.168310,116.899422 
	C18.293739,115.652168 18.675999,113.734329 19.538687,111.545242 
	C19.610113,110.683884 19.535120,110.395164 19.460129,110.106445 
	C19.235455,110.330872 19.010777,110.555290 18.786098,110.779709 
	C13.559252,112.384758 8.332410,113.989822 2.592266,115.752510 
	C2.470478,115.132568 2.241998,113.969528 1.990041,112.402954 
M29.019855,118.043411 
	C29.019855,118.043411 29.066534,118.003098 28.769381,117.308800 
	C26.610502,113.338036 24.552954,116.295052 22.022083,117.573090 
	C21.622103,117.828499 21.222122,118.083908 20.180569,118.660934 
	C19.452248,120.091316 15.349700,119.661415 18.333160,123.012390 
	C18.333160,123.012390 18.827635,122.997673 18.750870,123.665649 
	C18.805264,123.883080 18.859657,124.100502 19.252766,124.790039 
	C19.839815,124.537094 20.426865,124.284149 21.197956,123.542244 
	C21.502787,123.382004 21.807615,123.221764 22.744406,123.124496 
	C24.100901,122.780922 25.457394,122.437347 27.586044,122.159218 
	C28.728071,121.269890 29.870098,120.380562 30.738882,119.201347 
	C30.490389,118.875328 30.241898,118.549309 30.550684,117.912514 
	C31.178513,117.437042 31.806339,116.961563 33.080135,115.996872 
	C31.489048,115.996872 30.744596,115.996872 30.011663,115.389954 
	C29.887228,114.895058 29.762794,114.400162 29.638359,113.905266 
	C29.458040,113.927513 29.277721,113.949768 29.097403,113.972023 
	C29.046070,114.909508 28.994740,115.846992 28.534216,117.410118 
	C28.676632,117.614586 28.819050,117.819061 29.019855,118.043411 
M19.252594,127.205116 
	C19.009571,127.295769 18.766548,127.386414 18.523523,127.477066 
	C18.853207,127.498672 19.182890,127.520287 19.252594,127.205116 
z"/>
<path fill="#185C95" opacity="1.000000" stroke="none" 
	d="
M29.995735,151.556763 
	C29.979727,150.250168 29.963718,148.943573 29.912125,147.246399 
	C30.474573,146.017166 31.072605,145.178513 31.877205,144.591614 
	C32.720531,146.610748 33.357292,148.378128 33.698586,150.700378 
	C32.267323,151.355759 31.131529,151.456253 29.995735,151.556763 
z"/>
<path fill="#6A8CA0" opacity="1.000000" stroke="none" 
	d="
M201.698135,131.777542 
	C202.018677,131.639114 202.137817,132.021698 202.100433,132.217407 
	C202.513077,132.924606 202.963120,133.436096 203.616013,134.140533 
	C202.965698,138.515182 201.126755,135.691071 198.883957,134.976547 
	C199.903259,133.725510 200.640427,132.820740 201.698135,131.777542 
z"/>
<path fill="#175C99" opacity="1.000000" stroke="none" 
	d="
M67.749786,202.414642 
	C68.639984,202.480423 69.736870,202.806595 70.918503,203.491638 
	C69.987648,203.458694 68.972061,203.066879 67.749786,202.414642 
z"/>
<path fill="#175C99" opacity="1.000000" stroke="none" 
	d="
M134.274414,210.797729 
	C134.592575,210.394394 135.191452,210.044205 135.932556,209.939575 
	C135.568222,210.407043 135.061676,210.628952 134.274414,210.797729 
z"/>
<path fill="#175C99" opacity="1.000000" stroke="none" 
	d="
M91.166534,210.301758 
	C91.604317,210.113831 92.252174,210.109741 92.954590,210.376465 
	C92.464973,210.593399 91.920792,210.539490 91.166534,210.301758 
z"/>
<path fill="#185C95" opacity="1.000000" stroke="none" 
	d="
M32.175949,126.919693 
	C32.299061,126.346001 32.823601,125.728615 33.675838,125.118286 
	C34.004185,125.378288 34.009521,125.631134 34.022903,126.073456 
	C33.543301,126.467346 33.060337,126.671669 32.175949,126.919693 
z"/>
<path fill="#F5C933" opacity="1.000000" stroke="none" 
	d="
M32.023125,56.041714 
	C33.593800,58.156105 35.164471,60.270496 36.836056,62.520733 
	C37.697208,62.080200 38.533119,61.652584 39.765907,61.021938 
	C39.982395,62.346764 40.167408,63.478985 40.400185,64.903473 
	C42.837234,63.693558 44.973282,62.633080 47.109329,61.572601 
	C47.350113,61.878384 47.590893,62.184170 47.831673,62.489956 
	C46.728680,63.658382 45.625690,64.826805 44.884296,65.612183 
	C46.771374,67.168312 50.063366,68.662872 50.081196,70.195518 
	C50.105431,72.278099 47.626045,74.389824 46.220387,76.489052 
	C45.782261,76.313515 45.344139,76.137985 44.906017,75.962448 
	C45.214577,77.142288 45.523136,78.322128 46.189808,80.871284 
	C42.587471,80.318245 39.645809,79.978973 36.754074,79.393227 
	C33.407787,78.715416 30.108412,77.274971 26.782709,77.256798 
	C25.185955,77.248062 23.575480,79.749367 21.710062,81.556076 
	C21.281900,82.006699 21.114891,82.015198 20.890800,81.619110 
	C20.767012,80.128952 20.700298,79.043381 20.733728,77.733208 
	C20.833870,77.508614 20.749735,77.024040 20.861786,76.544334 
	C20.646761,74.865593 20.319681,73.666565 19.992601,72.467529 
	C19.992601,72.467529 20.009476,72.504227 20.326298,72.836967 
	C21.460083,72.450417 22.277042,71.731125 23.094006,71.011841 
	C29.225254,67.694397 27.179712,60.267597 31.174520,55.490498 
	C31.766138,55.508190 31.922857,55.757183 32.023125,56.041714 
z"/>
<path fill="#115895" opacity="1.000000" stroke="none" 
	d="
M20.633587,77.957802 
	C20.700298,79.043381 20.767012,80.128952 20.631670,81.798843 
	C19.951721,83.542358 19.473827,84.701561 18.995934,85.860771 
	C17.778137,86.819710 16.560341,87.778641 15.153252,88.341431 
	C16.403946,82.941910 17.843933,77.938530 19.638260,72.701340 
	C20.319681,73.666565 20.646761,74.865593 20.727547,76.624466 
	C20.270250,77.481476 20.321028,77.739311 20.633587,77.957802 
z"/>
<path fill="#115895" opacity="1.000000" stroke="none" 
	d="
M14.619322,87.761826 
	C14.289982,90.047523 13.637589,92.126648 12.566100,94.598915 
	C10.665095,96.654434 9.183187,98.316818 7.701279,99.979202 
	C7.382453,99.955811 7.063627,99.932411 6.605536,99.449974 
	C9.076269,95.179047 11.686270,91.367149 14.619322,87.761826 
z"/>
<path fill="#165C98" opacity="1.000000" stroke="none" 
	d="
M164.162933,16.595852 
	C162.632889,16.170668 160.883682,15.479207 159.066528,14.431408 
	C160.646988,14.826571 162.295364,15.578073 164.162933,16.595852 
z"/>
<path fill="#115895" opacity="1.000000" stroke="none" 
	d="
M5.742885,99.685310 
	C8.226995,100.156227 8.226995,100.156227 6.214783,103.668983 
	C5.360640,103.969856 4.793907,103.940956 3.803718,103.863808 
	C4.070670,102.514557 4.761078,101.213547 5.742885,99.685310 
z"/>
<path fill="#165C98" opacity="1.000000" stroke="none" 
	d="
M36.611671,38.175022 
	C37.032654,39.152473 37.251892,40.376354 37.194469,41.816822 
	C36.748512,40.829422 36.579220,39.625439 36.611671,38.175022 
z"/>
<path fill="#165C98" opacity="1.000000" stroke="none" 
	d="
M190.522934,40.894978 
	C190.106537,40.193619 189.860153,39.255741 189.899811,38.120682 
	C190.354874,38.835152 190.523895,39.746807 190.522934,40.894978 
z"/>
<path fill="#165C98" opacity="1.000000" stroke="none" 
	d="
M95.695877,5.311460 
	C95.126328,5.731661 94.243904,6.108138 93.179832,6.240225 
	C93.793121,5.753135 94.588058,5.510435 95.695877,5.311460 
z"/>
<path fill="#165C98" opacity="1.000000" stroke="none" 
	d="
M133.732056,5.833478 
	C133.043289,5.970839 132.084930,5.945879 131.059540,5.621956 
	C131.815811,5.439047 132.639130,5.555102 133.732056,5.833478 
z"/>
<path fill="#165C98" opacity="1.000000" stroke="none" 
	d="
M126.756905,4.756139 
	C126.074265,4.956563 125.115707,5.002847 124.073334,4.758865 
	C124.820007,4.513065 125.650497,4.557532 126.756905,4.756139 
z"/>
<path fill="#165C98" opacity="1.000000" stroke="none" 
	d="
M137.790894,6.679814 
	C137.129974,6.803246 136.217087,6.724362 135.160034,6.380893 
	C135.856888,6.236704 136.697922,6.357101 137.790894,6.679814 
z"/>
<path fill="#165C98" opacity="1.000000" stroke="none" 
	d="
M65.678009,15.089733 
	C65.143784,15.687258 64.286308,16.313501 63.055176,16.909393 
	C63.572594,16.292179 64.463676,15.705315 65.678009,15.089733 
z"/>
<path fill="#165C98" opacity="1.000000" stroke="none" 
	d="
M148.774124,9.854114 
	C148.356491,9.953377 147.719223,9.887582 147.037537,9.552370 
	C147.513580,9.418319 148.034042,9.553687 148.774124,9.854114 
z"/>
<path fill="#206097" opacity="1.000000" stroke="none" 
	d="
M22.787853,70.994789 
	C22.277042,71.731125 21.460083,72.450417 20.306625,72.841537 
	C20.132010,71.842056 20.293888,71.170746 20.732433,70.267822 
	C21.499964,70.350052 21.990833,70.663895 22.787853,70.994789 
z"/>
<path fill="#165C98" opacity="1.000000" stroke="none" 
	d="
M86.724785,7.191401 
	C86.419983,7.604780 85.834778,7.981627 85.101318,8.120669 
	C85.450172,7.640200 85.947273,7.397534 86.724785,7.191401 
z"/>
<path fill="#F3C934" opacity="1.000000" stroke="none" 
	d="
M55.110950,155.388229 
	C57.732304,154.804520 60.362900,154.807129 62.137268,153.575836 
	C64.769470,151.749283 66.430428,151.990952 68.608116,154.104034 
	C82.145477,167.239700 98.445610,173.137161 117.221771,172.159286 
	C132.605331,171.358093 146.081009,165.808868 157.242065,155.141266 
	C160.253891,152.262619 162.645996,150.879395 165.911423,154.610504 
	C166.586975,155.382401 168.272659,155.581192 169.472504,155.533569 
	C178.209488,155.186752 183.797974,160.640610 183.502304,169.141327 
	C183.450974,170.617035 183.855972,172.511185 184.789642,173.542908 
	C187.563477,176.608093 186.436478,178.713089 183.907272,181.143585 
	C167.820312,196.602692 148.538452,205.182266 126.546478,207.895355 
	C123.929222,208.218246 122.247047,208.606384 120.851479,211.426468 
	C117.647484,217.900970 109.403709,217.922882 106.177299,211.468369 
	C104.783440,208.679947 103.143585,208.209610 100.503555,207.891235 
	C78.854881,205.280472 59.838791,196.863693 43.843739,181.871765 
	C41.055313,179.258209 38.885365,176.889709 42.484539,173.156830 
	C43.413532,172.193314 43.242306,170.078537 43.398129,168.475296 
	C44.165932,160.575485 46.945316,157.344177 55.110950,155.388229 
M103.789116,195.085556 
	C103.789116,195.085556 103.723801,195.225708 103.787094,195.918457 
	C104.051819,197.005005 104.316544,198.091553 104.581268,199.178101 
	C104.896179,199.143127 105.211082,199.108154 105.525993,199.073196 
	C105.688408,197.715332 105.850822,196.357483 106.260651,194.247055 
	C106.815247,189.904022 107.369850,185.561005 107.924446,181.217972 
	C107.339821,181.109543 106.755188,181.001099 106.170563,180.892670 
	C105.265511,183.385605 104.360466,185.878540 103.494804,188.262970 
	C102.794075,185.510651 102.092201,182.753876 101.390335,179.997101 
	C100.744400,180.076599 100.098473,180.156097 99.452538,180.235596 
	C98.634445,186.311264 97.816353,192.386932 96.998268,198.462601 
	C97.671021,198.590256 98.343781,198.717911 99.016541,198.845581 
	C99.373222,197.458130 99.604477,196.021622 100.122543,194.697311 
	C100.621376,193.422150 101.416710,192.262985 102.028404,191.022400 
	C102.028404,191.022400 101.976692,190.989182 101.932808,191.543045 
	C102.074165,192.073502 102.215523,192.603973 102.398407,193.839996 
	C102.862823,194.306717 103.327240,194.773438 103.789116,195.085556 
M116.135078,211.015671 
	C116.653214,210.971954 117.171341,210.928253 117.689468,210.884552 
	C117.039658,210.283722 116.389839,209.682877 115.300606,208.714966 
	C115.269150,208.150192 115.237686,207.585434 115.628891,206.826385 
	C115.847542,206.599548 116.012199,206.338638 116.671829,206.282837 
	C117.307442,206.159790 117.943054,206.036758 118.578667,205.913712 
	C117.725525,205.608124 116.872391,205.302536 115.664406,204.415268 
	C114.839462,201.527542 112.996620,201.860413 110.321686,203.202896 
	C110.072617,203.716232 109.823555,204.229553 109.574486,204.742889 
	C110.290695,204.886200 111.006905,205.029526 111.685394,205.866501 
	C111.776817,207.263138 111.868248,208.659760 112.006256,210.739578 
	C113.030708,210.772705 114.055161,210.805832 115.309006,210.668808 
	C115.309006,210.668808 115.566536,210.792297 116.135078,211.015671 
M63.000290,175.802109 
	C63.000290,175.802109 62.916050,175.529617 63.586628,175.940277 
	C62.986263,178.838745 62.385902,181.737198 61.785538,184.635666 
	C62.330376,184.831985 62.875214,185.028320 63.420055,185.224640 
	C66.836891,180.206955 70.253731,175.189270 73.670570,170.171585 
	C72.748039,169.366898 71.825508,168.562195 70.902977,167.757507 
	C69.904266,170.300491 68.905556,172.843491 67.906845,175.386475 
	C67.369644,174.854874 66.832451,174.323273 66.295258,173.791672 
	C66.495872,173.187210 66.696487,172.582764 67.256531,171.279312 
	C67.570168,169.565079 67.883797,167.850830 68.197433,166.136597 
	C67.660934,165.940018 67.124435,165.743454 66.587944,165.546875 
	C63.120529,170.498947 59.653114,175.451035 56.185703,180.403107 
	C56.758499,180.835358 57.331295,181.267593 57.904091,181.699844 
	C59.276714,180.073914 60.649334,178.447983 62.514374,176.815948 
	C62.857166,176.602539 62.938583,176.315094 63.000290,175.802109 
M150.340164,180.932083 
	C148.252960,178.855743 146.165756,176.779404 144.078552,174.703079 
	C143.586212,175.054657 143.093887,175.406250 142.601547,175.757828 
	C145.032242,181.176102 147.462936,186.594360 149.893631,192.012619 
	C150.691635,191.912598 151.489655,191.812592 152.287659,191.712570 
	C150.207886,188.042603 148.866745,184.392380 151.686493,181.158890 
	C152.392593,187.018539 153.580963,188.542557 158.076920,188.665115 
	C155.348083,183.013504 152.735886,177.603485 150.123688,172.193481 
	C149.576309,172.426865 149.028931,172.660248 148.481552,172.893631 
	C149.330658,175.574799 150.179749,178.255951 150.340164,180.932083 
M163.249496,176.771317 
	C163.249496,176.771317 163.256119,176.679321 163.223618,175.957336 
	C160.431503,173.557617 157.639389,171.157898 154.847275,168.758179 
	C154.572128,168.952301 154.296982,169.146423 154.021851,169.340546 
	C156.312790,175.118698 158.603714,180.896851 160.894653,186.675003 
	C161.803177,187.340912 162.711700,188.006805 163.620224,188.672699 
	C158.699173,176.679047 166.828964,183.556473 169.510437,181.511581 
	C167.149948,179.695541 165.245743,178.230545 163.249496,176.771317 
M88.666458,178.388794 
	C86.931854,177.167191 85.197250,175.945587 82.977081,174.382004 
	C80.415977,180.776352 78.195084,186.321289 75.833817,192.216690 
	C78.353180,192.997879 80.197540,193.569778 82.041893,194.141663 
	C82.195007,193.787796 82.348114,193.433945 82.501228,193.080078 
	C81.473030,192.153366 80.444839,191.226654 78.536903,189.507034 
	C80.703262,187.813950 82.570869,186.354340 83.978439,185.254257 
	C83.810471,183.208405 83.613724,180.811981 83.401520,178.227264 
	C86.187614,178.578064 87.628357,178.759476 89.517380,179.693604 
	C88.267464,185.007935 87.017548,190.322266 85.767632,195.636612 
	C86.335167,195.756790 86.902695,195.876984 87.470230,195.997162 
	C88.196503,194.361862 88.922783,192.726562 90.006195,190.287125 
	C90.684700,193.278809 91.141289,195.292023 91.608597,197.352539 
	C93.287895,192.580750 94.944427,188.438034 96.132736,184.165115 
	C96.506180,182.822281 96.058403,180.174881 95.223579,179.793198 
	C93.409798,178.963898 91.104530,179.209534 88.666458,178.388794 
M144.194519,187.397385 
	C143.313721,185.093063 142.880508,182.429749 141.410995,180.597641 
	C140.228058,179.122803 137.330063,177.513519 136.034088,178.038818 
	C134.562668,178.635223 133.270096,181.540985 133.271378,183.441895 
	C133.273071,185.964752 134.447556,188.547028 135.401428,190.993286 
	C136.508057,193.831268 138.013885,196.836090 141.800720,195.629349 
	C145.559906,194.431412 145.116135,191.224442 144.194519,187.397385 
M113.486435,196.217667 
	C114.906288,197.413879 116.326141,198.610077 117.746002,199.806274 
	C118.056190,199.661209 118.366379,199.516129 118.676567,199.371048 
	C117.240349,193.294830 115.804131,187.218628 114.367920,181.142410 
	C113.737450,181.219528 113.106979,181.296646 112.476509,181.373779 
	C111.254845,187.437775 110.033188,193.501785 108.811523,199.565796 
	C109.255508,199.709045 109.699501,199.852280 110.143486,199.995514 
	C111.010506,198.762512 111.877518,197.529526 113.486435,196.217667 
M120.436958,184.540924 
	C121.130043,189.436188 121.823128,194.331467 122.516212,199.226746 
	C123.147820,199.176041 123.779419,199.125336 124.411026,199.074631 
	C124.096031,193.090836 123.781044,187.107040 123.444176,180.707733 
	C122.180130,180.884491 119.812172,181.215637 117.444214,181.546768 
	C117.458191,181.900833 117.472176,182.254898 117.486153,182.608963 
	C118.321846,183.030518 119.157539,183.452072 120.436958,184.540924 
M73.814667,178.100235 
	C72.065125,181.517044 70.315590,184.933853 68.566048,188.350647 
	C69.066078,188.590652 69.566101,188.830658 70.066132,189.070679 
	C74.965843,185.311111 74.010635,176.858719 82.333878,174.776306 
	C79.058975,173.201950 76.775459,172.104187 75.085869,171.291946 
	C74.705177,173.783951 74.429497,175.588577 73.814667,178.100235 
M171.892181,175.578323 
	C168.469589,171.747772 165.046982,167.917221 161.624374,164.086685 
	C161.095215,164.568222 160.566055,165.049774 160.036911,165.531326 
	C163.909332,170.173187 167.781754,174.815033 171.860733,179.704483 
	C173.850693,177.870407 175.242111,176.587967 176.633530,175.305542 
	C176.329391,174.919510 176.025253,174.533478 175.721100,174.147446 
	C174.667221,174.703125 173.613342,175.258820 171.892181,175.578323 
M131.521362,198.007614 
	C131.940186,197.274918 132.815262,196.464035 132.705246,195.821930 
	C131.866333,190.925262 130.874344,186.052963 129.810516,181.199265 
	C129.687881,180.639679 128.832184,180.240784 128.316360,179.767380 
	C127.885384,179.926743 127.454407,180.086105 127.023430,180.245468 
	C128.279861,186.052780 129.536301,191.860107 131.521362,198.007614 
M51.170784,175.628357 
	C51.743214,176.040710 52.756615,176.876190 52.825005,176.804916 
	C56.911827,172.545609 60.920856,168.211655 64.937256,163.884781 
	C64.328575,163.330353 63.719898,162.775909 63.111217,162.221466 
	C59.224529,166.473846 55.337841,170.726227 51.170784,175.628357 
z"/>
<path fill="#F4C934" opacity="1.000000" stroke="none" 
	d="
M43.398731,50.158768 
	C43.459007,49.641838 43.519283,49.124912 43.622631,47.972427 
	C43.538929,47.011059 43.412151,46.685246 43.285374,46.359428 
	C43.193634,45.482849 43.442493,44.229660 42.955944,43.789635 
	C39.263931,40.450653 40.741528,37.958488 43.781643,35.150150 
	C83.004921,-1.082794 143.988266,-1.043322 183.333359,35.251419 
	C186.175812,37.873497 187.684814,40.144749 184.346863,43.552559 
	C183.421661,44.497108 183.337723,46.543163 183.348511,48.080471 
	C183.404221,56.021576 178.241486,61.314713 170.372314,61.359051 
	C168.811188,61.367844 166.734726,61.367058 165.788757,62.287899 
	C162.711899,65.282990 160.557632,64.358704 157.746887,61.801891 
	C132.065292,38.440384 94.924309,38.427113 69.306541,61.767658 
	C66.513657,64.312286 64.294060,65.350243 61.271492,62.288792 
	C60.503155,61.510567 58.867390,61.209286 57.673065,61.293915 
	C50.928452,61.771839 46.550331,58.723045 43.949875,51.970818 
	C43.685863,50.939762 43.542297,50.549267 43.398731,50.158768 
M152.228180,28.733717 
	C152.915421,26.768768 153.602661,24.803818 154.382080,22.575312 
	C151.753159,21.736185 149.758041,21.099361 147.484894,20.373793 
	C145.939789,24.590422 144.551697,28.378546 143.063461,32.439983 
	C138.276962,26.497660 141.157349,15.926263 130.072266,14.728446 
	C127.394928,22.632046 124.722595,30.520878 121.984192,38.604740 
	C124.590111,39.460091 126.577583,40.112450 128.839920,40.855026 
	C130.372498,36.568451 131.802597,32.568462 133.526718,27.746071 
	C135.189468,32.485359 136.809280,36.316082 137.857300,40.297321 
	C139.047089,44.817032 141.961639,46.172729 146.011765,46.135002 
	C146.367218,45.605907 146.621048,45.356491 146.724213,45.055443 
	C148.499847,39.873817 150.256927,34.685833 152.228180,28.733717 
M118.136795,29.084110 
	C118.591743,20.025885 114.629181,14.628679 106.596268,13.365356 
	C99.773895,12.292412 92.750885,16.507092 90.883530,22.794941 
	C88.795944,29.824371 92.683556,37.370415 99.550697,39.618332 
	C107.469643,42.210548 114.961243,38.275417 118.136795,29.084110 
M172.580002,42.043858 
	C174.317062,41.224850 176.054138,40.405842 178.511322,39.247307 
	C176.429642,36.922413 174.994492,34.888805 173.148376,33.347374 
	C169.294464,30.129519 164.696716,30.319151 161.417557,33.517281 
	C158.008759,36.841816 158.053024,39.749634 161.314713,44.531425 
	C162.241608,45.890297 162.697327,47.570568 163.369110,49.103451 
	C162.764145,49.479252 162.159180,49.855053 161.554199,50.230854 
	C159.720490,48.190224 157.886780,46.149597 155.897873,43.936245 
	C154.371552,44.779202 152.687027,45.709526 151.048889,46.614235 
	C153.757202,53.447792 159.129623,57.935081 164.037445,56.467899 
	C176.171600,52.840412 170.210083,45.112026 166.532181,38.060802 
	C167.122314,37.920242 167.712433,37.779682 168.302551,37.639122 
	C169.538055,38.951599 170.773544,40.264076 172.580002,42.043858 
M54.583904,33.850700 
	C52.942547,35.128857 51.301189,36.407017 49.427563,37.866051 
	C55.012024,44.661350 60.227753,51.007965 65.659782,57.617783 
	C69.719688,54.297958 73.384430,51.301266 77.341393,48.065624 
	C75.726021,46.299713 74.457260,44.912712 73.148460,43.481945 
	C71.037300,45.032017 69.316231,46.295673 67.328247,47.755306 
	C63.299660,43.087673 59.314598,38.470463 54.583904,33.850700 
M76.859474,20.309105 
	C75.286514,21.077747 73.713554,21.846390 71.955559,22.705452 
	C75.409836,30.646572 78.693474,38.195415 82.092819,46.010254 
	C84.530914,44.842896 86.527130,43.887108 88.669868,42.861164 
	C85.502571,35.476776 82.600227,28.616827 79.582001,21.808252 
	C79.257118,21.075375 78.258949,20.640961 76.859474,20.309105 
z"/>
<path fill="#EEC636" opacity="1.000000" stroke="none" 
	d="
M79.818893,157.227600 
	C48.447697,134.842926 45.845676,91.637352 72.075562,65.886086 
	C90.554420,47.744408 118.906670,43.828995 141.844116,56.246841 
	C164.628326,68.581726 176.833160,94.615631 171.759018,120.057755 
	C166.776016,145.042923 145.813766,164.236069 120.490036,167.192566 
	C105.789337,168.908813 92.426048,165.425400 79.818893,157.227600 
M69.654808,139.764862 
	C80.979309,154.712402 95.925957,162.653763 114.768883,162.099335 
	C136.327774,161.464996 152.457504,151.167465 161.833511,131.956726 
	C171.402695,112.350273 169.483047,92.862968 156.115540,75.508392 
	C142.732986,58.134285 124.343437,51.373577 102.948280,55.612911 
	C64.544731,63.222374 47.696503,105.612823 69.654808,139.764862 
z"/>
<path fill="#E9C437" opacity="1.000000" stroke="none" 
	d="
M29.625149,151.626648 
	C31.131529,151.456253 32.267323,151.355759 33.701920,151.063171 
	C42.593132,149.157745 54.571213,144.848175 54.427971,137.186340 
	C54.846104,137.012421 55.264240,136.838516 55.682373,136.664597 
	C56.563995,138.938019 57.445618,141.211441 58.161770,143.058167 
	C53.659687,146.320480 49.996250,149.542877 45.821926,151.834778 
	C41.912495,153.981262 37.461952,155.142212 32.701115,156.944473 
	C28.284693,154.172104 28.284693,154.172104 29.625149,151.626648 
z"/>
<path fill="#E3C13A" opacity="1.000000" stroke="none" 
	d="
M179.491882,129.581726 
	C184.106598,129.295334 185.487869,131.802155 185.703644,135.637039 
	C185.903976,139.197037 186.384705,142.741272 186.791763,146.787537 
	C185.821091,146.064362 184.620132,145.576752 184.063293,144.686340 
	C181.212540,140.127930 179.170044,135.257614 179.491882,129.581726 
z"/>
<path fill="#E8C338" opacity="1.000000" stroke="none" 
	d="
M190.054810,151.807663 
	C192.794861,152.437912 195.534897,153.068176 198.274948,153.698425 
	C196.806900,155.644867 195.335938,157.589111 193.871750,159.538437 
	C192.734772,161.052139 191.606232,162.572205 190.242264,164.399902 
	C186.503876,160.998901 188.780579,157.812607 189.099182,154.400696 
	C189.014709,154.013260 188.966446,154.040710 189.209229,154.053696 
	C189.694061,153.832581 189.842850,153.549484 189.938995,152.865128 
	C190.004654,152.277802 190.029739,152.042725 190.054810,151.807663 
z"/>
<path fill="#E0BF3B" opacity="1.000000" stroke="none" 
	d="
M44.384384,136.944321 
	C44.158588,140.375015 43.334831,143.410339 39.256527,144.799072 
	C39.865223,140.240280 40.126949,135.997696 41.141102,131.943314 
	C41.488232,130.555557 43.721100,129.639496 45.092415,128.507919 
	C44.935909,129.967514 44.808731,131.431076 44.611382,132.885132 
	C44.501297,133.696228 44.274540,134.491470 44.157738,135.897827 
	C44.215115,136.501785 44.384384,136.944321 44.384384,136.944321 
z"/>
<path fill="#1A5C91" opacity="1.000000" stroke="none" 
	d="
M180.935867,82.057999 
	C184.655334,81.657753 188.374802,81.257507 192.509171,80.832916 
	C192.954041,81.047691 192.984009,81.286812 193.057312,81.884857 
	C192.493408,86.978317 188.615082,85.041725 186.207184,85.199661 
	C184.566971,85.307243 182.806961,83.588501 181.042542,82.351646 
	C180.984558,82.016907 180.935867,82.057999 180.935867,82.057999 
z"/>
<path fill="#C4B148" opacity="1.000000" stroke="none" 
	d="
M173.964294,145.964508 
	C171.846817,145.188599 169.729324,144.412689 167.135010,143.462051 
	C168.381073,141.197922 169.588593,139.003830 170.989502,136.458374 
	C172.058777,139.844833 172.917694,142.565094 173.847015,145.640198 
	C173.917419,145.995041 173.964294,145.964493 173.964294,145.964508 
z"/>
<path fill="#D7BB3E" opacity="1.000000" stroke="none" 
	d="
M32.312149,55.851768 
	C31.922857,55.757183 31.766138,55.508190 31.364138,55.178085 
	C31.735392,49.678616 36.237160,48.204887 39.917206,45.916225 
	C40.296787,46.165115 40.676369,46.414001 41.055954,46.662891 
	C40.194019,47.803505 39.436378,49.045437 38.447773,50.062981 
	C36.568691,51.997066 34.557499,53.802792 32.312149,55.851768 
z"/>
<path fill="#C1AF49" opacity="1.000000" stroke="none" 
	d="
M39.412807,123.946838 
	C38.966259,123.528069 38.963268,123.158203 38.950546,122.510956 
	C39.774982,121.893524 40.609154,121.553482 41.988617,121.012932 
	C42.711891,120.791199 42.889877,120.769974 43.067863,120.748756 
	C45.539627,121.437492 48.011391,122.126236 50.483154,122.814972 
	C50.516579,123.208565 50.550003,123.602158 50.583427,123.995750 
	C47.007740,123.995750 43.432053,123.995750 39.412807,123.946838 
z"/>
<path fill="#D7BB3E" opacity="1.000000" stroke="none" 
	d="
M173.903763,146.019455 
	C177.191483,147.139038 180.492844,148.234207 183.815872,149.632172 
	C183.377701,150.048874 182.917877,150.162781 182.458054,150.276688 
	C178.392700,152.130768 175.967056,150.185486 174.082428,146.338715 
	C173.964294,145.964493 173.917419,145.995041 173.903763,146.019455 
z"/>
<path fill="#E9C437" opacity="1.000000" stroke="none" 
	d="
M182.276794,150.755569 
	C182.917877,150.162781 183.377701,150.048874 184.072891,149.883911 
	C186.058914,150.336670 187.809570,150.840485 189.807526,151.575989 
	C190.029739,152.042725 190.004654,152.277802 189.636826,152.853439 
	C189.184860,153.476242 189.075653,153.758484 188.966446,154.040710 
	C188.966446,154.040710 189.014709,154.013260 189.038177,153.998550 
	C187.470657,154.051651 185.767151,154.490921 184.328583,154.055328 
	C183.385956,153.769897 182.826584,152.218719 182.276794,150.755569 
z"/>
<path fill="#175A92" opacity="1.000000" stroke="none" 
	d="
M43.314106,120.492676 
	C42.889877,120.769974 42.711891,120.791199 42.265060,120.815018 
	C42.522896,118.852592 43.049580,116.887581 43.678474,114.541222 
	C46.025280,115.932259 45.703232,117.934998 43.314106,120.492676 
z"/>
<path fill="#206097" opacity="1.000000" stroke="none" 
	d="
M19.280613,85.888100 
	C19.473827,84.701561 19.951721,83.542358 20.688747,82.203415 
	C21.114891,82.015198 21.281900,82.006699 21.692776,81.939644 
	C21.553463,83.229195 21.170280,84.577301 20.461052,85.945869 
	C19.945099,85.949356 19.755196,85.932388 19.280613,85.888100 
z"/>
<path fill="#205F8F" opacity="1.000000" stroke="none" 
	d="
M197.206818,88.465019 
	C195.680496,89.328552 194.087784,89.736687 192.495071,90.144821 
	C192.363190,89.700356 192.231308,89.255890 192.099426,88.811432 
	C193.499069,88.243118 194.898727,87.674805 196.666412,87.100899 
	C197.069778,87.400078 197.105087,87.704842 197.206818,88.465019 
z"/>
<path fill="#205F8F" opacity="1.000000" stroke="none" 
	d="
M196.950134,85.020836 
	C197.716309,83.909424 198.468842,82.762794 199.221375,81.616165 
	C199.583145,81.943634 199.944931,82.271103 200.306702,82.598579 
	C199.416199,83.414047 198.525696,84.229515 197.260986,85.044525 
	C196.886795,85.044060 196.936508,84.985626 196.950134,85.020836 
z"/>
<path fill="#175A92" opacity="1.000000" stroke="none" 
	d="
M40.819565,113.010056 
	C41.114441,112.362694 41.709469,111.702461 42.654427,111.107033 
	C42.376141,111.780289 41.747932,112.388733 40.819565,113.010056 
z"/>
<path fill="#185C95" opacity="1.000000" stroke="none" 
	d="
M54.018906,131.981277 
	C54.302719,133.107330 54.586536,134.233368 54.870350,135.359421 
	C54.423088,135.386795 53.975826,135.414154 53.528564,135.441528 
	C53.660934,134.521957 53.793308,133.602402 53.962929,132.341309 
	C54.000175,131.999802 54.018906,131.981277 54.018906,131.981277 
z"/>
<path fill="#205F8F" opacity="1.000000" stroke="none" 
	d="
M206.471222,83.623230 
	C207.060608,83.913429 207.423553,84.426132 207.786499,84.938835 
	C207.416748,85.136116 207.047012,85.333397 206.677261,85.530678 
	C206.533096,84.969040 206.388931,84.407394 206.471222,83.623230 
z"/>
<path fill="#205F8F" opacity="1.000000" stroke="none" 
	d="
M205.018829,80.318222 
	C205.173187,80.070183 205.359772,80.103966 205.826538,80.088821 
	C206.181702,80.532700 206.256668,81.025505 206.331650,81.518311 
	C205.904785,81.212227 205.477905,80.906136 205.018829,80.318222 
z"/>
<path fill="#185C95" opacity="1.000000" stroke="none" 
	d="
M53.990768,132.008972 
	C53.587067,131.538483 53.161552,131.078491 52.832939,130.557419 
	C52.784996,130.481369 53.199368,130.113770 53.399815,129.881088 
	C53.602066,130.389969 53.804321,130.898834 54.012741,131.694489 
	C54.018906,131.981277 54.000175,131.999802 53.990768,132.008972 
z"/>
<path fill="#205F8F" opacity="1.000000" stroke="none" 
	d="
M208.615265,87.770386 
	C208.471420,88.208580 208.193100,88.475639 207.895523,88.719215 
	C207.882370,88.729988 207.693756,88.526436 207.586853,88.422714 
	C207.883621,88.146751 208.180389,87.870796 208.615265,87.770386 
z"/>
<path fill="#205F8F" opacity="1.000000" stroke="none" 
	d="
M209.731750,90.887131 
	C209.243454,90.783867 208.987381,90.638206 208.731308,90.492538 
	C208.987152,90.345871 209.315826,90.025513 209.481110,90.094810 
	C209.707138,90.189598 209.808929,90.580666 209.731750,90.887131 
z"/>
<path fill="#175A92" opacity="1.000000" stroke="none" 
	d="
M37.019363,113.972382 
	C36.633991,113.686005 36.382889,113.128586 36.131790,112.571175 
	C36.697414,112.496727 37.263035,112.422287 37.958458,112.652893 
	C37.776714,113.205750 37.465172,113.453552 37.019363,113.972382 
z"/>
<path fill="#165C98" opacity="1.000000" stroke="none" 
	d="
M43.288071,50.341835 
	C43.542297,50.549267 43.685863,50.939762 43.797848,51.644554 
	C43.569984,51.480869 43.373699,51.002884 43.288071,50.341835 
z"/>
<path fill="#205F8F" opacity="1.000000" stroke="none" 
	d="
M196.052231,85.182449 
	C195.785675,85.143730 195.456665,84.837440 195.240112,84.284576 
	C195.564957,84.330299 195.777374,84.622597 196.052231,85.182449 
z"/>
<path fill="#205F8F" opacity="1.000000" stroke="none" 
	d="
M210.923386,92.194626 
	C211.025711,92.695908 210.839905,93.318871 210.327988,93.980728 
	C210.212997,93.451851 210.424133,92.884079 210.923386,92.194626 
z"/>
<path fill="#EEC636" opacity="1.000000" stroke="none" 
	d="
M185.719437,62.324501 
	C185.220215,62.108627 184.880157,61.712757 184.540100,61.316891 
	C184.984360,61.318798 185.428619,61.320705 186.033203,61.552078 
	C186.193527,61.781544 185.878601,62.144512 185.719437,62.324501 
z"/>
<path fill="#165C98" opacity="1.000000" stroke="none" 
	d="
M40.536949,59.557983 
	C40.477398,59.594978 40.596500,59.520988 40.536949,59.557983 
z"/>
<path fill="#165C98" opacity="1.000000" stroke="none" 
	d="
M43.222847,46.609764 
	C43.412151,46.685246 43.538929,47.011059 43.533028,47.589806 
	C43.320343,47.515190 43.240330,47.187641 43.222847,46.609764 
z"/>
<path fill="#185C95" opacity="1.000000" stroke="none" 
	d="
M44.492935,136.841278 
	C44.384384,136.944321 44.215115,136.501785 44.246254,136.266953 
	C44.606052,136.183090 44.714085,136.418457 44.492935,136.841278 
z"/>
<path fill="#9E9D59" opacity="1.000000" stroke="none" 
	d="
M202.372803,116.411522 
	C204.213058,117.407761 206.082336,118.354668 207.885254,119.414429 
	C209.617737,120.432793 211.281509,121.568054 212.975464,122.651962 
	C212.634949,123.359184 212.294434,124.066414 211.953918,124.773636 
	C210.410263,125.156593 208.866608,125.539558 207.322937,125.922516 
	C207.596725,122.478027 201.571823,126.082672 203.050461,121.382751 
	C203.276886,120.693527 203.098328,120.364563 202.919785,120.035591 
	C202.919785,120.035591 202.991089,120.012276 202.983917,119.802666 
	C202.654434,119.243889 202.332108,118.894722 202.049927,118.189133 
	C202.184311,117.358986 202.278549,116.885254 202.372803,116.411522 
z"/>
<path fill="#D7BB3E" opacity="1.000000" stroke="none" 
	d="
M202.303009,116.170731 
	C202.278549,116.885254 202.184311,117.358986 201.708160,118.001678 
	C200.570877,118.149902 199.815521,118.129166 199.060150,118.108429 
	C198.760254,116.499527 198.460342,114.890617 198.030884,112.586761 
	C199.707809,113.920845 200.970505,114.925400 202.303009,116.170731 
z"/>
<path fill="#356887" opacity="1.000000" stroke="none" 
	d="
M199.137695,118.455109 
	C199.815521,118.129166 200.570877,118.149902 201.668030,118.358093 
	C202.332108,118.894722 202.654434,119.243889 202.967255,119.836266 
	C201.710236,119.653580 200.462738,119.227684 199.137695,118.455109 
z"/>
<path fill="#1A5C91" opacity="1.000000" stroke="none" 
	d="
M181.009750,81.997406 
	C180.810959,81.820335 180.586960,81.662766 180.362961,81.505203 
	C180.596863,81.548645 180.830780,81.592087 181.000275,81.846756 
	C180.935867,82.057999 180.984558,82.016907 181.009750,81.997406 
z"/>
<path fill="#356887" opacity="1.000000" stroke="none" 
	d="
M202.703796,120.322021 
	C203.098328,120.364563 203.276886,120.693527 203.176025,121.110283 
	C202.760361,121.001526 202.624100,120.804993 202.703796,120.322021 
z"/>
<path fill="#2A638A" opacity="1.000000" stroke="none" 
	d="
M7.999482,100.130630 
	C9.183187,98.316818 10.665095,96.654434 12.518209,94.988159 
	C14.608482,100.888062 11.876822,107.511322 7.103792,107.845528 
	C8.047160,105.923965 9.048115,104.271965 9.620890,102.482880 
	C9.792915,101.945557 8.772063,101.026337 7.999482,100.130630 
z"/>
<path fill="#326688" opacity="1.000000" stroke="none" 
	d="
M22.468328,117.400963 
	C24.552954,116.295052 26.610502,113.338036 28.788624,117.873718 
	C28.549761,118.657654 28.291655,118.876671 27.708141,119.158478 
	C26.597549,119.626808 25.812365,120.032341 25.026949,120.111473 
	C25.033430,119.569473 25.040144,119.353882 25.275232,118.935745 
	C24.755838,118.590202 24.008070,118.447205 23.065132,118.075928 
	C22.736084,117.698746 22.602207,117.549850 22.468328,117.400963 
z"/>
<path fill="#B6AA4F" opacity="1.000000" stroke="none" 
	d="
M25.027184,120.437874 
	C25.812365,120.032341 26.597549,119.626808 27.699820,119.443329 
	C28.023502,119.855278 28.030102,120.045158 27.867037,120.474052 
	C27.402882,121.173302 27.108387,121.633537 26.813890,122.093773 
	C25.457394,122.437347 24.100901,122.780922 22.485989,122.847748 
	C22.469505,122.341034 22.711439,122.111061 23.201359,121.799377 
	C23.975288,121.291069 24.501236,120.864471 25.027184,120.437874 
z"/>
<path fill="#2C648A" opacity="1.000000" stroke="none" 
	d="
M17.856920,122.875626 
	C15.349700,119.661415 19.452248,120.091316 20.544559,118.879135 
	C20.927568,119.350487 20.946589,119.603630 20.852617,120.144081 
	C20.818218,120.621536 20.896809,120.811691 20.990826,121.004318 
	C21.006254,121.006798 21.009645,120.975731 20.682739,120.887039 
	C19.522861,121.490768 18.689892,122.183197 17.856920,122.875626 
z"/>
<path fill="#326688" opacity="1.000000" stroke="none" 
	d="
M22.953373,121.881088 
	C22.711439,122.111061 22.469505,122.341034 22.170008,122.816269 
	C21.807615,123.221764 21.502787,123.382004 20.749014,123.811333 
	C19.838066,124.159592 19.376059,124.238762 18.914051,124.317924 
	C18.859657,124.100502 18.805264,123.883080 19.096149,123.240677 
	C19.964167,122.202385 20.486904,121.589058 21.009644,120.975723 
	C21.009645,120.975731 21.006254,121.006798 21.264938,121.052986 
	C21.686771,121.010689 21.849922,120.922203 22.260017,120.752869 
	C22.657051,120.585526 22.807140,120.499023 22.962864,120.779678 
	C22.963457,121.391594 22.958414,121.636345 22.953373,121.881088 
z"/>
<path fill="#58767F" opacity="1.000000" stroke="none" 
	d="
M27.199968,122.126495 
	C27.108387,121.633537 27.402882,121.173302 28.236750,120.372452 
	C29.521460,119.851639 30.266794,119.671440 31.012127,119.491226 
	C29.870098,120.380562 28.728071,121.269890 27.199968,122.126495 
z"/>
<path fill="#D7BB3E" opacity="1.000000" stroke="none" 
	d="
M28.943409,116.784477 
	C28.994740,115.846992 29.046070,114.909508 29.097403,113.972023 
	C29.277721,113.949768 29.458040,113.927513 29.638359,113.905266 
	C29.762794,114.400162 29.887228,114.895058 30.018501,115.909485 
	C30.025341,116.429008 29.969088,116.858185 29.712040,116.848495 
	C29.284464,116.820702 29.113935,116.802589 28.943409,116.784477 
z"/>
<path fill="#58767F" opacity="1.000000" stroke="none" 
	d="
M29.969088,116.858185 
	C29.969088,116.858185 30.025341,116.429008 30.012743,116.212936 
	C30.744596,115.996872 31.489048,115.996872 33.080135,115.996872 
	C31.806339,116.961563 31.178513,117.437042 30.256748,117.981140 
	C29.962811,118.049767 30.027143,117.885735 30.019171,117.628479 
	C29.997162,117.200203 29.983124,117.029190 29.969088,116.858185 
z"/>
<path fill="#E3C13A" opacity="1.000000" stroke="none" 
	d="
M30.875505,119.346291 
	C30.266794,119.671440 29.521460,119.851639 28.406412,120.133438 
	C28.030102,120.045158 28.023502,119.855278 28.025227,119.380539 
	C28.291655,118.876671 28.549761,118.657654 28.937201,118.220871 
	C29.066534,118.003098 29.019855,118.043411 29.264126,118.053589 
	C29.681313,118.004425 29.854229,117.945084 30.027143,117.885735 
	C30.027143,117.885735 29.962811,118.049767 29.978107,118.136536 
	C30.241898,118.549309 30.490389,118.875328 30.875505,119.346291 
z"/>
<path fill="#B6AA4F" opacity="1.000000" stroke="none" 
	d="
M20.682735,120.887032 
	C20.486904,121.589058 19.964167,122.202385 19.134533,122.906693 
	C18.827635,122.997673 18.333160,123.012390 18.095041,122.944016 
	C18.689892,122.183197 19.522861,121.490768 20.682735,120.887032 
z"/>
<path fill="#326688" opacity="1.000000" stroke="none" 
	d="
M20.965607,119.856781 
	C20.946589,119.603630 20.927568,119.350487 20.865345,118.718323 
	C21.222122,118.083908 21.622103,117.828499 22.245205,117.487030 
	C22.602207,117.549850 22.736084,117.698746 22.923374,118.283783 
	C22.603113,119.048347 22.229443,119.376755 21.634464,119.750313 
	C21.413158,119.795464 20.965607,119.856781 20.965607,119.856781 
z"/>
<path fill="#B6AA4F" opacity="1.000000" stroke="none" 
	d="
M19.382584,127.373505 
	C19.182890,127.520287 18.853207,127.498672 18.523525,127.477066 
	C18.766548,127.386414 19.009571,127.295769 19.382584,127.373505 
z"/>
<path fill="#B6AA4F" opacity="1.000000" stroke="none" 
	d="
M19.083408,124.553986 
	C19.376059,124.238762 19.838066,124.159592 20.656994,124.055809 
	C20.426865,124.284149 19.839815,124.537094 19.083408,124.553986 
z"/>
<path fill="#165B97" opacity="1.000000" stroke="none" 
	d="
M18.920418,110.915192 
	C19.010777,110.555290 19.235455,110.330872 19.460129,110.106445 
	C19.535120,110.395164 19.610113,110.683884 19.505301,111.146057 
	C19.325495,111.319511 19.054733,111.050667 18.920418,110.915192 
z"/>
<path fill="#326688" opacity="1.000000" stroke="none" 
	d="
M30.019171,117.628479 
	C29.854229,117.945084 29.681313,118.004425 29.234932,118.043655 
	C28.819050,117.819061 28.676632,117.614586 28.738811,117.097298 
	C29.113935,116.802589 29.284464,116.820702 29.712040,116.848495 
	C29.983124,117.029190 29.997162,117.200203 30.019171,117.628479 
z"/>
<path fill="#206097" opacity="1.000000" stroke="none" 
	d="
M20.733728,77.733208 
	C20.321028,77.739311 20.270250,77.481476 20.615494,77.104172 
	C20.749735,77.024040 20.833870,77.508614 20.733728,77.733208 
z"/>
<path fill="#205E8F" opacity="1.000000" stroke="none" 
	d="
M89.000183,179.015747 
	C91.104530,179.209534 93.409798,178.963898 95.223579,179.793198 
	C96.058403,180.174881 96.506180,182.822281 96.132736,184.165115 
	C94.944427,188.438034 93.287895,192.580750 91.608597,197.352539 
	C91.141289,195.292023 90.684700,193.278809 90.006195,190.287125 
	C88.922783,192.726562 88.196503,194.361862 87.470230,195.997162 
	C86.902695,195.876984 86.335167,195.756790 85.767632,195.636612 
	C87.017548,190.322266 88.267464,185.007935 89.271790,179.332062 
	C89.026192,178.970535 89.000183,179.015747 89.000183,179.015747 
z"/>
<path fill="#28628C" opacity="1.000000" stroke="none" 
	d="
M144.283600,187.785950 
	C145.116135,191.224442 145.559906,194.431412 141.800720,195.629349 
	C138.013885,196.836090 136.508057,193.831268 135.401428,190.993286 
	C134.447556,188.547028 133.273071,185.964752 133.271378,183.441895 
	C133.270096,181.540985 134.562668,178.635223 136.034088,178.038818 
	C137.330063,177.513519 140.228058,179.122803 141.410995,180.597641 
	C142.880508,182.429749 143.313721,185.093063 144.283600,187.785950 
M135.899567,183.453369 
	C136.961105,187.024231 136.941223,191.178116 141.533707,193.811707 
	C142.692719,188.523651 141.037827,184.408417 138.489944,180.971664 
	C136.744888,178.617828 135.907791,180.707962 135.899567,183.453369 
z"/>
<path fill="#356887" opacity="1.000000" stroke="none" 
	d="
M102.356888,193.134430 
	C102.215523,192.603973 102.074165,192.073502 102.196671,191.131714 
	C102.370796,190.520340 102.281067,190.320312 102.191330,190.120285 
	C102.154808,190.431137 102.118294,190.742004 102.081772,191.052856 
	C101.416710,192.262985 100.621376,193.422150 100.122543,194.697311 
	C99.604477,196.021622 99.373222,197.458130 99.016541,198.845581 
	C98.343781,198.717911 97.671021,198.590256 96.998268,198.462601 
	C97.816353,192.386932 98.634445,186.311264 99.452538,180.235596 
	C100.098473,180.156097 100.744400,180.076599 101.390335,179.997101 
	C102.092201,182.753876 102.794075,185.510651 103.494804,188.262970 
	C104.360466,185.878540 105.265511,183.385605 106.170563,180.892670 
	C106.755188,181.001099 107.339821,181.109543 107.924446,181.217972 
	C107.369850,185.561005 106.815247,189.904022 105.753403,194.632355 
	C104.738708,195.086990 104.231255,195.156342 103.723801,195.225708 
	C103.723801,195.225708 103.789116,195.085556 103.816444,194.788727 
	C103.348137,194.039398 102.852509,193.586914 102.356888,193.134430 
z"/>
<path fill="#215F8E" opacity="1.000000" stroke="none" 
	d="
M163.341537,176.765533 
	C165.245743,178.230545 167.149948,179.695541 169.510437,181.511581 
	C166.828964,183.556473 158.699173,176.679047 163.620224,188.672699 
	C162.711700,188.006805 161.803177,187.340912 160.894653,186.675003 
	C158.603714,180.896851 156.312790,175.118698 154.021851,169.340546 
	C154.296982,169.146423 154.572128,168.952301 154.847275,168.758179 
	C157.639389,171.157898 160.431503,173.557617 162.932465,176.421036 
	C162.271362,177.332901 161.901428,177.781067 161.531509,178.229233 
	C161.770813,178.389023 162.010117,178.548828 162.249435,178.708618 
	C162.613464,178.060928 162.977493,177.413223 163.341537,176.765533 
z"/>
<path fill="#26618C" opacity="1.000000" stroke="none" 
	d="
M113.115479,196.257095 
	C111.877518,197.529526 111.010506,198.762512 110.143486,199.995514 
	C109.699501,199.852280 109.255508,199.709045 108.811523,199.565796 
	C110.033188,193.501785 111.254845,187.437775 112.476509,181.373779 
	C113.106979,181.296646 113.737450,181.219528 114.367920,181.142410 
	C115.804131,187.218628 117.240349,193.294830 118.676567,199.371048 
	C118.366379,199.516129 118.056190,199.661209 117.746002,199.806274 
	C116.326141,198.610077 114.906288,197.413879 113.115479,196.257095 
M114.866974,191.042587 
	C114.161079,190.484543 113.455193,189.926514 112.749298,189.368469 
	C112.749298,191.218506 112.749298,193.068558 112.749298,194.918594 
	C113.206169,194.941635 113.663033,194.964676 114.119904,194.987717 
	C114.308151,193.889557 114.496399,192.791412 114.866974,191.042587 
z"/>
<path fill="#215F8E" opacity="1.000000" stroke="none" 
	d="
M89.047638,178.955719 
	C87.628357,178.759476 86.187614,178.578064 83.401520,178.227264 
	C83.613724,180.811981 83.810471,183.208405 83.978439,185.254257 
	C82.570869,186.354340 80.703262,187.813950 78.536903,189.507034 
	C80.444839,191.226654 81.473030,192.153366 82.501228,193.080078 
	C82.348114,193.433945 82.195007,193.787796 82.041893,194.141663 
	C80.197540,193.569778 78.353180,192.997879 75.833817,192.216690 
	C78.195084,186.321289 80.415977,180.776352 82.977081,174.382004 
	C85.197250,175.945587 86.931854,177.167191 88.833321,178.702271 
	C89.000183,179.015747 89.026192,178.970535 89.047638,178.955719 
z"/>
<path fill="#2F6589" opacity="1.000000" stroke="none" 
	d="
M66.897095,171.978302 
	C66.696487,172.582764 66.495872,173.187210 66.295258,173.791672 
	C66.832451,174.323273 67.369644,174.854874 67.906845,175.386475 
	C68.905556,172.843491 69.904266,170.300491 70.902977,167.757507 
	C71.825508,168.562195 72.748039,169.366898 73.670570,170.171585 
	C70.253731,175.189270 66.836891,180.206955 63.420055,185.224640 
	C62.875214,185.028320 62.330376,184.831985 61.785538,184.635666 
	C62.385902,181.737198 62.986263,178.838745 63.294399,175.427277 
	C64.062248,173.619598 63.669868,170.398041 66.897095,171.978302 
z"/>
<path fill="#26618C" opacity="1.000000" stroke="none" 
	d="
M120.215096,184.207275 
	C119.157539,183.452072 118.321846,183.030518 117.486153,182.608963 
	C117.472176,182.254898 117.458191,181.900833 117.444214,181.546768 
	C119.812172,181.215637 122.180130,180.884491 123.444176,180.707733 
	C123.781044,187.107040 124.096031,193.090836 124.411026,199.074631 
	C123.779419,199.125336 123.147820,199.176041 122.516212,199.226746 
	C121.823128,194.331467 121.130043,189.436188 120.215096,184.207275 
z"/>
<path fill="#205E8F" opacity="1.000000" stroke="none" 
	d="
M73.984238,177.746735 
	C74.429497,175.588577 74.705177,173.783951 75.085869,171.291946 
	C76.775459,172.104187 79.058975,173.201950 82.333878,174.776306 
	C74.010635,176.858719 74.965843,185.311111 70.066132,189.070679 
	C69.566101,188.830658 69.066078,188.590652 68.566048,188.350647 
	C70.315590,184.933853 72.065125,181.517044 73.984238,177.746735 
z"/>
<path fill="#2A638A" opacity="1.000000" stroke="none" 
	d="
M172.225830,175.696411 
	C173.613342,175.258820 174.667221,174.703125 175.721100,174.147446 
	C176.025253,174.533478 176.329391,174.919510 176.633530,175.305542 
	C175.242111,176.587967 173.850693,177.870407 171.860733,179.704483 
	C167.781754,174.815033 163.909332,170.173187 160.036911,165.531326 
	C160.566055,165.049774 161.095215,164.568222 161.624374,164.086685 
	C165.046982,167.917221 168.469589,171.747772 172.225830,175.696411 
z"/>
<path fill="#125993" opacity="1.000000" stroke="none" 
	d="
M150.955490,180.833893 
	C148.866745,184.392380 150.207886,188.042603 152.287659,191.712570 
	C151.489655,191.812592 150.691635,191.912598 149.893631,192.012619 
	C147.462936,186.594360 145.032242,181.176102 142.601547,175.757828 
	C143.093887,175.406250 143.586212,175.054657 144.078552,174.703079 
	C146.165756,176.779404 148.252960,178.855743 150.672928,180.903992 
	C151.005692,180.875885 150.955490,180.833893 150.955490,180.833893 
z"/>
<path fill="#215F8E" opacity="1.000000" stroke="none" 
	d="
M151.017273,180.906494 
	C150.179749,178.255951 149.330658,175.574799 148.481552,172.893631 
	C149.028931,172.660248 149.576309,172.426865 150.123688,172.193481 
	C152.735886,177.603485 155.348083,183.013504 158.076920,188.665115 
	C153.580963,188.542557 152.392593,187.018539 151.320984,180.996399 
	C150.955490,180.833893 151.005692,180.875885 151.017273,180.906494 
z"/>
<path fill="#2B638A" opacity="1.000000" stroke="none" 
	d="
M131.157043,197.837524 
	C129.536301,191.860107 128.279861,186.052780 127.023430,180.245468 
	C127.454407,180.086105 127.885384,179.926743 128.316360,179.767380 
	C128.832184,180.240784 129.687881,180.639679 129.810516,181.199265 
	C130.874344,186.052963 131.866333,190.925262 132.705246,195.821930 
	C132.815262,196.464035 131.940186,197.274918 131.157043,197.837524 
z"/>
<path fill="#2C648A" opacity="1.000000" stroke="none" 
	d="
M67.076813,171.628815 
	C63.669868,170.398041 64.062248,173.619598 62.959110,175.221954 
	C62.916050,175.529617 63.000290,175.802109 62.724693,175.993347 
	C62.253613,176.361496 62.111233,176.573990 62.021954,176.822052 
	C60.649334,178.447983 59.276714,180.073914 57.904091,181.699844 
	C57.331295,181.267593 56.758499,180.835358 56.185703,180.403107 
	C59.653114,175.451035 63.120529,170.498947 66.587944,165.546875 
	C67.124435,165.743454 67.660934,165.940018 68.197433,166.136597 
	C67.883797,167.850830 67.570168,169.565079 67.076813,171.628815 
z"/>
<path fill="#27628B" opacity="1.000000" stroke="none" 
	d="
M51.310966,175.303482 
	C55.337841,170.726227 59.224529,166.473846 63.111217,162.221466 
	C63.719898,162.775909 64.328575,163.330353 64.937256,163.884781 
	C60.920856,168.211655 56.911827,172.545609 52.825005,176.804916 
	C52.756615,176.876190 51.743214,176.040710 51.310966,175.303482 
z"/>
<path fill="#808C68" opacity="1.000000" stroke="none" 
	d="
M116.122864,206.043640 
	C116.012199,206.338638 115.847542,206.599548 115.076431,206.882324 
	C113.708809,206.323822 112.893646,205.709396 111.947479,204.812622 
	C111.519295,203.992630 111.222115,203.454971 110.924934,202.917313 
	C112.996620,201.860413 114.839462,201.527542 115.845413,204.970001 
	C116.058563,205.697708 116.090714,205.870682 116.122864,206.043640 
z"/>
<path fill="#2F6589" opacity="1.000000" stroke="none" 
	d="
M112.078476,205.094971 
	C112.893646,205.709396 113.708809,206.323822 114.865097,206.979462 
	C115.237686,207.585434 115.269150,208.150192 115.521118,209.185944 
	C115.683266,210.035370 115.624893,210.413834 115.566528,210.792297 
	C115.566536,210.792297 115.309006,210.668808 115.164818,210.783142 
	C115.020630,210.897476 115.067337,210.966263 115.049126,210.670731 
	C114.301620,210.205841 113.572319,210.036499 112.621468,209.911087 
	C112.399910,209.955032 111.959671,210.056396 111.959671,210.056396 
	C111.868248,208.659760 111.776817,207.263138 111.802933,205.551270 
	C111.920464,205.236038 112.078476,205.094971 112.078476,205.094971 
z"/>
<path fill="#326688" opacity="1.000000" stroke="none" 
	d="
M103.755447,195.572083 
	C104.231255,195.156342 104.738708,195.086990 105.629700,195.008636 
	C105.850822,196.357483 105.688408,197.715332 105.525993,199.073196 
	C105.211082,199.108154 104.896179,199.143127 104.581268,199.178101 
	C104.316544,198.091553 104.051819,197.005005 103.755447,195.572083 
z"/>
<path fill="#E9C437" opacity="1.000000" stroke="none" 
	d="
M116.397346,206.163239 
	C116.090714,205.870682 116.058563,205.697708 116.022827,205.260864 
	C116.872391,205.302536 117.725525,205.608124 118.578667,205.913727 
	C117.943054,206.036758 117.307442,206.159790 116.397346,206.163239 
z"/>
<path fill="#9E9D59" opacity="1.000000" stroke="none" 
	d="
M111.982964,210.397980 
	C111.959671,210.056396 112.399910,209.955032 112.787544,210.203918 
	C113.805901,210.623962 114.436615,210.795105 115.067337,210.966263 
	C115.067337,210.966263 115.020630,210.897476 115.050125,210.868225 
	C114.055161,210.805832 113.030708,210.772705 111.982964,210.397980 
z"/>
<path fill="#E9C437" opacity="1.000000" stroke="none" 
	d="
M115.850800,210.903992 
	C115.624893,210.413834 115.683266,210.035370 115.740829,209.369476 
	C116.389839,209.682877 117.039658,210.283722 117.689468,210.884552 
	C117.171341,210.928253 116.653214,210.971954 115.850800,210.903992 
z"/>
<path fill="#9E9D59" opacity="1.000000" stroke="none" 
	d="
M111.947479,204.812622 
	C112.078476,205.094971 111.920464,205.236038 111.821793,205.204437 
	C111.006905,205.029526 110.290695,204.886200 109.574493,204.742889 
	C109.823555,204.229553 110.072617,203.716232 110.623306,203.060104 
	C111.222115,203.454971 111.519295,203.992630 111.947479,204.812622 
z"/>
<path fill="#326688" opacity="1.000000" stroke="none" 
	d="
M102.377640,193.487213 
	C102.852509,193.586914 103.348137,194.039398 103.817711,194.866028 
	C103.327240,194.773438 102.862823,194.306717 102.377640,193.487213 
z"/>
<path fill="#2F6589" opacity="1.000000" stroke="none" 
	d="
M62.268162,176.819000 
	C62.111233,176.573990 62.253613,176.361496 62.603859,176.069092 
	C62.938583,176.315094 62.857166,176.602539 62.268162,176.819000 
z"/>
<path fill="#105896" opacity="1.000000" stroke="none" 
	d="
M152.123123,29.116478 
	C150.256927,34.685833 148.499847,39.873817 146.724213,45.055443 
	C146.621048,45.356491 146.367218,45.605907 146.011765,46.135002 
	C141.961639,46.172729 139.047089,44.817032 137.857300,40.297321 
	C136.809280,36.316082 135.189468,32.485359 133.526718,27.746071 
	C131.802597,32.568462 130.372498,36.568451 128.839920,40.855026 
	C126.577583,40.112450 124.590111,39.460091 121.984192,38.604740 
	C124.722595,30.520878 127.394928,22.632046 130.072266,14.728446 
	C141.157349,15.926263 138.276962,26.497660 143.063461,32.439983 
	C144.551697,28.378546 145.939789,24.590422 147.484894,20.373793 
	C149.758041,21.099361 151.753159,21.736185 154.382080,22.575312 
	C153.602661,24.803818 152.915421,26.768768 152.123123,29.116478 
z"/>
<path fill="#115895" opacity="1.000000" stroke="none" 
	d="
M118.077774,29.500843 
	C114.961243,38.275417 107.469643,42.210548 99.550697,39.618332 
	C92.683556,37.370415 88.795944,29.824371 90.883530,22.794941 
	C92.750885,16.507092 99.773895,12.292412 106.596268,13.365356 
	C114.629181,14.628679 118.591743,20.025885 118.077774,29.500843 
M102.964752,20.431059 
	C99.118820,21.743694 97.042252,24.280064 98.213905,28.403429 
	C99.197075,31.863457 101.973282,34.169174 105.342453,32.828838 
	C107.614174,31.925093 110.245590,29.082760 110.591118,26.787708 
	C111.254982,22.378168 107.968658,20.404516 102.964752,20.431059 
z"/>
<path fill="#105895" opacity="1.000000" stroke="none" 
	d="
M172.294525,41.810207 
	C170.773544,40.264076 169.538055,38.951599 168.302551,37.639122 
	C167.712433,37.779682 167.122314,37.920242 166.532181,38.060802 
	C170.210083,45.112026 176.171600,52.840412 164.037445,56.467899 
	C159.129623,57.935081 153.757202,53.447792 151.048889,46.614235 
	C152.687027,45.709526 154.371552,44.779202 155.897873,43.936245 
	C157.886780,46.149597 159.720490,48.190224 161.554199,50.230854 
	C162.159180,49.855053 162.764145,49.479252 163.369110,49.103451 
	C162.697327,47.570568 162.241608,45.890297 161.314713,44.531425 
	C158.053024,39.749634 158.008759,36.841816 161.417557,33.517281 
	C164.696716,30.319151 169.294464,30.129519 173.148376,33.347374 
	C174.994492,34.888805 176.429642,36.922413 178.511322,39.247307 
	C176.054138,40.405842 174.317062,41.224850 172.294525,41.810207 
z"/>
<path fill="#105895" opacity="1.000000" stroke="none" 
	d="
M54.956718,33.851974 
	C59.314598,38.470463 63.299660,43.087673 67.328247,47.755306 
	C69.316231,46.295673 71.037300,45.032017 73.148460,43.481945 
	C74.457260,44.912712 75.726021,46.299713 77.341393,48.065624 
	C73.384430,51.301266 69.719688,54.297958 65.659782,57.617783 
	C60.227753,51.007965 55.012024,44.661350 49.427563,37.866051 
	C51.301189,36.407017 52.942547,35.128857 54.956718,33.851974 
z"/>
<path fill="#135994" opacity="1.000000" stroke="none" 
	d="
M77.216293,20.188601 
	C78.258949,20.640961 79.257118,21.075375 79.582001,21.808252 
	C82.600227,28.616827 85.502571,35.476776 88.669868,42.861164 
	C86.527130,43.887108 84.530914,44.842896 82.092819,46.010254 
	C78.693474,38.195415 75.409836,30.646572 71.955559,22.705452 
	C73.713554,21.846390 75.286514,21.077747 77.216293,20.188601 
z"/>
<path fill="#0B5598" opacity="1.000000" stroke="none" 
	d="
M69.437538,139.477936 
	C47.696503,105.612823 64.544731,63.222374 102.948280,55.612911 
	C124.343437,51.373577 142.732986,58.134285 156.115540,75.508392 
	C169.483047,92.862968 171.402695,112.350273 161.833511,131.956726 
	C152.457504,151.167465 136.327774,161.464996 114.768883,162.099335 
	C95.925957,162.653763 80.979309,154.712402 69.437538,139.477936 
M143.874023,132.855927 
	C139.262924,128.468338 140.299591,123.711456 143.327499,118.816162 
	C142.026871,117.745140 140.931335,116.843010 139.874771,115.972961 
	C135.753983,118.420876 134.456741,121.861679 134.045288,126.141548 
	C133.864838,128.018539 132.221878,131.143753 130.968643,131.286057 
	C125.805908,131.872299 120.537895,131.531464 115.127274,131.531464 
	C115.127274,115.187225 115.130142,99.552177 115.125084,83.917130 
	C115.123940,80.379410 116.644104,78.238152 120.375740,78.001350 
	C120.968155,77.963753 121.544495,77.672913 122.353622,77.432083 
	C122.194511,75.800774 122.058235,74.403496 121.893135,72.710754 
	C112.751427,72.710754 103.951851,72.851082 95.160179,72.648567 
	C91.072830,72.554420 90.735329,74.395035 91.820526,77.803940 
	C97.525711,77.550674 98.455276,81.012665 98.376892,85.887680 
	C98.173576,98.531090 98.219147,111.181358 98.374954,123.826309 
	C98.438614,128.993515 98.735321,133.947433 91.618065,133.442184 
	C91.618065,135.939545 91.618065,137.857605 91.618065,139.771103 
	C109.472198,139.771103 127.002396,139.771103 144.863403,139.771103 
	C144.688538,137.397110 144.544037,135.435532 143.874023,132.855927 
z"/>
<path fill="#115895" opacity="1.000000" stroke="none" 
	d="
M189.209229,154.053696 
	C189.075653,153.758484 189.184860,153.476242 189.596222,153.205704 
	C189.842850,153.549484 189.694061,153.832581 189.209229,154.053696 
z"/>
<path fill="#C4B148" opacity="1.000000" stroke="none" 
	d="
M21.855774,119.705170 
	C22.229443,119.376755 22.603113,119.048347 23.118544,118.512077 
	C24.008070,118.447205 24.755838,118.590202 25.029024,118.994911 
	C24.022038,119.641922 23.489634,120.027222 22.957230,120.412521 
	C22.807140,120.499023 22.657051,120.585526 22.230099,120.469543 
	C21.920748,120.079765 21.888262,119.892464 21.855774,119.705170 
z"/>
<path fill="#58767F" opacity="1.000000" stroke="none" 
	d="
M22.962864,120.779686 
	C23.489634,120.027222 24.022038,119.641922 24.800650,119.197456 
	C25.040144,119.353882 25.033430,119.569473 25.026951,120.111473 
	C24.501236,120.864471 23.975288,121.291069 23.201359,121.799377 
	C22.958414,121.636345 22.963457,121.391594 22.962864,120.779686 
z"/>
<path fill="#B6AA4F" opacity="1.000000" stroke="none" 
	d="
M21.634468,119.750320 
	C21.888262,119.892464 21.920748,120.079765 21.983152,120.550392 
	C21.849922,120.922203 21.686771,121.010689 21.249508,121.050507 
	C20.896809,120.811691 20.818218,120.621536 20.852617,120.144081 
	C20.965607,119.856781 21.413158,119.795464 21.634468,119.750320 
z"/>
<path fill="#EDC635" opacity="1.000000" stroke="none" 
	d="
M135.856262,183.045959 
	C135.907791,180.707962 136.744888,178.617828 138.489944,180.971664 
	C141.037827,184.408417 142.692719,188.523651 141.533707,193.811707 
	C136.941223,191.178116 136.961105,187.024231 135.856262,183.045959 
z"/>
<path fill="#F3C934" opacity="1.000000" stroke="none" 
	d="
M102.055084,191.037628 
	C102.118294,190.742004 102.154808,190.431137 102.191330,190.120285 
	C102.281067,190.320312 102.370796,190.520340 102.218613,190.854767 
	C101.976692,190.989182 102.028404,191.022400 102.055084,191.037628 
z"/>
<path fill="#205E8F" opacity="1.000000" stroke="none" 
	d="
M163.295517,176.768433 
	C162.977493,177.413223 162.613464,178.060928 162.249435,178.708618 
	C162.010117,178.548828 161.770813,178.389023 161.531509,178.229233 
	C161.901428,177.781067 162.271362,177.332901 162.948700,176.782028 
	C163.256119,176.679321 163.249496,176.771317 163.295517,176.768433 
z"/>
<path fill="#326688" opacity="1.000000" stroke="none" 
	d="
M114.775810,191.367920 
	C114.496399,192.791412 114.308151,193.889557 114.119904,194.987717 
	C113.663033,194.964676 113.206169,194.941635 112.749298,194.918594 
	C112.749298,193.068558 112.749298,191.218506 112.749298,189.368469 
	C113.455193,189.926514 114.161079,190.484543 114.775810,191.367920 
z"/>
<path fill="#E0BF3B" opacity="1.000000" stroke="none" 
	d="
M115.049126,210.670731 
	C114.436615,210.795105 113.805901,210.623962 113.009102,210.159973 
	C113.572319,210.036499 114.301620,210.205841 115.049126,210.670731 
z"/>
<path fill="#F2C735" opacity="1.000000" stroke="none" 
	d="
M103.333649,20.354185 
	C107.968658,20.404516 111.254982,22.378168 110.591118,26.787708 
	C110.245590,29.082760 107.614174,31.925093 105.342453,32.828838 
	C101.973282,34.169174 99.197075,31.863457 98.213905,28.403429 
	C97.042252,24.280064 99.118820,21.743694 103.333649,20.354185 
z"/>
<path fill="#F8CA32" opacity="1.000000" stroke="none" 
	d="
M144.136780,133.164948 
	C144.544037,135.435532 144.688538,137.397110 144.863403,139.771103 
	C127.002396,139.771103 109.472198,139.771103 91.618065,139.771103 
	C91.618065,137.857605 91.618065,135.939545 91.618065,133.442184 
	C98.735321,133.947433 98.438614,128.993515 98.374954,123.826309 
	C98.219147,111.181358 98.173576,98.531090 98.376892,85.887680 
	C98.455276,81.012665 97.525711,77.550674 91.820526,77.803940 
	C90.735329,74.395035 91.072830,72.554420 95.160179,72.648567 
	C103.951851,72.851082 112.751427,72.710754 121.893135,72.710754 
	C122.058235,74.403496 122.194511,75.800774 122.353622,77.432083 
	C121.544495,77.672913 120.968155,77.963753 120.375740,78.001350 
	C116.644104,78.238152 115.123940,80.379410 115.125084,83.917130 
	C115.130142,99.552177 115.127274,115.187225 115.127274,131.531464 
	C120.537895,131.531464 125.805908,131.872299 130.968643,131.286057 
	C132.221878,131.143753 133.864838,128.018539 134.045288,126.141548 
	C134.456741,121.861679 135.753983,118.420876 139.874771,115.972961 
	C140.931335,116.843010 142.026871,117.745140 143.327499,118.816162 
	C140.299591,123.711456 139.262924,128.468338 144.136780,133.164948 
z"/>
</svg>